<?xml version="1.0" encoding="UTF-8" standalone="no"?>
<!DOCTYPE svg PUBLIC "-//W3C//DTD SVG 1.1//EN" "http://www.w3.org/Graphics/SVG/1.1/DTD/svg11.dtd">
<svg width="100%" height="100%" viewBox="0 0 185 196" version="1.1" xmlns="http://www.w3.org/2000/svg" xmlns:xlink="http://www.w3.org/1999/xlink" xml:space="preserve" xmlns:serif="http://www.serif.com/" style="fill-rule:evenodd;clip-rule:evenodd;stroke-linejoin:round;stroke-miterlimit:2;">
    <g transform="matrix(1,0,0,1,-140,-412)">
        <clipPath id="_clip1">
            <rect x="156.188" y="492" width="157.385" height="40"/>
        </clipPath>
        <g clip-path="url(#_clip1)">
            <path d="M313.99,512.37C313.99,522.901 305.417,531.469 294.891,531.469L262.5,531.469L262.5,523.161L294.891,523.161C300.839,523.161 305.688,518.318 305.688,512.37C305.688,506.417 300.839,501.573 294.891,501.573L232.594,501.573L232.594,493.266L294.885,493.266C305.417,493.266 313.99,501.839 313.99,512.37ZM237.578,523.161L175.286,523.161C169.333,523.161 164.49,518.318 164.49,512.37C164.49,506.417 169.333,501.573 175.286,501.573L207.677,501.573L207.677,493.266L175.286,493.266C164.755,493.266 156.188,501.839 156.188,512.37C156.188,522.896 164.755,531.474 175.286,531.474L237.578,531.474L237.578,523.161Z" style="fill:white;fill-rule:nonzero;"/>
        </g>
    </g>
    <g transform="matrix(1,0,0,1,-140,-412)">
        <clipPath id="_clip2">
            <rect x="214.667" y="433.469" width="40" height="157.385"/>
        </clipPath>
        <g clip-path="url(#_clip2)">
            <path d="M224.286,508.219L254.193,508.219L254.193,572.172C254.193,582.708 245.62,591.271 235.089,591.271C224.557,591.271 215.99,582.703 215.99,572.172L215.99,539.781L224.292,539.781L224.292,572.172C224.292,578.125 229.141,582.969 235.089,582.969C241.042,582.969 245.885,578.125 245.885,572.172L245.885,516.521L215.99,516.521L215.99,452.568C215.984,442.042 224.557,433.469 235.083,433.469C245.62,433.469 254.193,442.042 254.193,452.568L254.193,484.958L245.885,484.958L245.885,452.568C245.885,446.62 241.042,441.771 235.089,441.771C229.141,441.771 224.292,446.62 224.292,452.568L224.292,508.219L224.286,508.219Z" style="fill:white;fill-rule:nonzero;"/>
        </g>
    </g>
</svg>
