<svg xmlns="http://www.w3.org/2000/svg" xmlns:xlink="http://www.w3.org/1999/xlink" width="1080" zoomAndPan="magnify" viewBox="0 0 810 809.999993" height="1080" preserveAspectRatio="xMidYMid meet" version="1.0"><defs><g/><clipPath id="cfe6b30915"><path d="M 303.660156 324 L 506.160156 324 L 506.160156 374 L 303.660156 374 Z M 303.660156 324 " clip-rule="nonzero"/></clipPath><clipPath id="91aebaa7e2"><path d="M 380 248.101562 L 430 248.101562 L 430 450.601562 L 380 450.601562 Z M 380 248.101562 " clip-rule="nonzero"/></clipPath></defs><rect x="-81" width="972" fill="#ffffff" y="-80.999999" height="971.999992" fill-opacity="1"/><rect x="-81" width="972" fill="#38b6ff" y="-80.999999" height="971.999992" fill-opacity="1"/><g clip-path="url(#cfe6b30915)"><path fill="#ffffff" d="M 506.335938 349.4375 C 506.335938 362.964844 495.328125 373.96875 481.804688 373.96875 L 440.207031 373.96875 L 440.207031 363.300781 L 481.804688 363.300781 C 489.449219 363.300781 495.671875 357.082031 495.671875 349.4375 C 495.671875 341.792969 489.449219 335.570312 481.804688 335.570312 L 401.796875 335.570312 L 401.796875 324.90625 L 481.796875 324.90625 C 495.328125 324.90625 506.335938 335.914062 506.335938 349.4375 Z M 408.195312 363.300781 L 328.191406 363.300781 C 320.550781 363.300781 314.328125 357.082031 314.328125 349.4375 C 314.328125 341.792969 320.550781 335.570312 328.191406 335.570312 L 369.789062 335.570312 L 369.789062 324.90625 L 328.191406 324.90625 C 314.667969 324.90625 303.660156 335.914062 303.660156 349.4375 C 303.660156 362.960938 314.667969 373.976562 328.191406 373.976562 L 408.195312 373.976562 Z M 408.195312 363.300781 " fill-opacity="1" fill-rule="nonzero"/></g><g clip-path="url(#91aebaa7e2)"><path fill="#ffffff" d="M 391.128906 344.105469 L 429.535156 344.105469 L 429.535156 426.246094 C 429.535156 439.777344 418.527344 450.777344 405.003906 450.777344 C 391.472656 450.777344 380.472656 439.769531 380.472656 426.246094 L 380.472656 384.648438 L 391.136719 384.648438 L 391.136719 426.246094 C 391.136719 433.890625 397.359375 440.113281 405.003906 440.113281 C 412.644531 440.113281 418.867188 433.890625 418.867188 426.246094 L 418.867188 354.773438 L 380.472656 354.773438 L 380.472656 272.632812 C 380.464844 259.109375 391.472656 248.101562 404.996094 248.101562 C 418.527344 248.101562 429.535156 259.109375 429.535156 272.632812 L 429.535156 314.230469 L 418.867188 314.230469 L 418.867188 272.632812 C 418.867188 264.988281 412.644531 258.769531 405.003906 258.769531 C 397.359375 258.769531 391.136719 264.988281 391.136719 272.632812 L 391.136719 344.105469 Z M 391.128906 344.105469 " fill-opacity="1" fill-rule="nonzero"/></g><g fill="#ffffff" fill-opacity="1"><g transform="translate(225.812838, 526.31206)"><g><path d="M 20.5 -44.90625 C 26.28125 -44.90625 31.484375 -43.375 36.109375 -40.3125 L 32.984375 -33.6875 C 28.441406 -36.445312 24.09375 -37.828125 19.9375 -37.828125 C 17.6875 -37.828125 15.910156 -37.421875 14.609375 -36.609375 C 13.316406 -35.804688 12.671875 -34.660156 12.671875 -33.171875 C 12.671875 -31.691406 13.265625 -30.429688 14.453125 -29.390625 C 15.640625 -28.347656 17.125 -27.582031 18.90625 -27.09375 C 20.695312 -26.601562 22.628906 -25.988281 24.703125 -25.25 C 26.785156 -24.507812 28.71875 -23.722656 30.5 -22.890625 C 32.289062 -22.066406 33.769531 -20.773438 34.9375 -19.015625 C 36.101562 -17.253906 36.6875 -15.117188 36.6875 -12.609375 C 36.6875 -8.703125 35.125 -5.582031 32 -3.25 C 28.882812 -0.914062 24.84375 0.25 19.875 0.25 C 16.476562 0.25 13.1875 -0.382812 10 -1.65625 C 6.8125 -2.925781 4.03125 -4.644531 1.65625 -6.8125 L 4.90625 -13.3125 C 7.15625 -11.226562 9.628906 -9.625 12.328125 -8.5 C 15.023438 -7.375 17.582031 -6.8125 20 -6.8125 C 22.632812 -6.8125 24.679688 -7.289062 26.140625 -8.25 C 27.609375 -9.207031 28.34375 -10.535156 28.34375 -12.234375 C 28.34375 -13.753906 27.75 -15.035156 26.5625 -16.078125 C 25.375 -17.117188 23.882812 -17.882812 22.09375 -18.375 C 20.3125 -18.863281 18.378906 -19.457031 16.296875 -20.15625 C 14.222656 -20.851562 12.289062 -21.59375 10.5 -22.375 C 8.71875 -23.164062 7.234375 -24.429688 6.046875 -26.171875 C 4.859375 -27.910156 4.265625 -30.015625 4.265625 -32.484375 C 4.265625 -36.265625 5.75 -39.28125 8.71875 -41.53125 C 11.695312 -43.78125 15.625 -44.90625 20.5 -44.90625 Z M 20.5 -44.90625 "/></g></g></g><g fill="#ffffff" fill-opacity="1"><g transform="translate(268.80658, 526.31206)"><g><path d="M 36.296875 -37.828125 L 22.15625 -37.828125 L 22.15625 0 L 14.640625 0 L 14.640625 -37.828125 L 0.578125 -37.828125 L 0.578125 -44.578125 L 36.296875 -44.578125 Z M 36.296875 -37.828125 "/></g></g></g><g fill="#ffffff" fill-opacity="1"><g transform="translate(309.061501, 526.31206)"><g><path d="M 34.640625 -10.0625 L 12.171875 -10.0625 L 7.890625 0 L 0.0625 0 L 19.75 -44.578125 L 27.453125 -44.578125 L 46.9375 0 L 38.90625 0 Z M 31.78125 -16.75 L 23.375 -36.5625 L 14.96875 -16.75 Z M 31.78125 -16.75 "/></g></g></g><g fill="#ffffff" fill-opacity="1"><g transform="translate(359.443686, 526.31206)"><g><path d="M 34.140625 0 L 25.984375 -13.5 C 25.554688 -13.457031 24.878906 -13.4375 23.953125 -13.4375 L 13.375 -13.4375 L 13.375 0 L 5.859375 0 L 5.859375 -44.578125 L 23.953125 -44.578125 C 29.640625 -44.578125 34.050781 -43.25 37.1875 -40.59375 C 40.332031 -37.945312 41.90625 -34.203125 41.90625 -29.359375 C 41.90625 -25.796875 41.109375 -22.78125 39.515625 -20.3125 C 37.921875 -17.851562 35.640625 -16.050781 32.671875 -14.90625 L 42.671875 0 Z M 13.375 -20.1875 L 23.953125 -20.1875 C 31.160156 -20.1875 34.765625 -23.179688 34.765625 -29.171875 C 34.765625 -34.941406 31.160156 -37.828125 23.953125 -37.828125 L 13.375 -37.828125 Z M 13.375 -20.1875 "/></g></g></g><g fill="#ffffff" fill-opacity="1"><g transform="translate(408.870456, 526.31206)"><g><path d="M 5.859375 -44.578125 L 23.625 -44.578125 C 29.226562 -44.578125 33.566406 -43.25 36.640625 -40.59375 C 39.722656 -37.945312 41.265625 -34.203125 41.265625 -29.359375 C 41.265625 -24.304688 39.722656 -20.390625 36.640625 -17.609375 C 33.566406 -14.828125 29.226562 -13.4375 23.625 -13.4375 L 13.375 -13.4375 L 13.375 0 L 5.859375 0 Z M 13.375 -37.828125 L 13.375 -20.1875 L 23.3125 -20.1875 C 30.488281 -20.1875 34.078125 -23.179688 34.078125 -29.171875 C 34.078125 -34.941406 30.488281 -37.828125 23.3125 -37.828125 Z M 13.375 -37.828125 "/></g></g></g><g fill="#ffffff" fill-opacity="1"><g transform="translate(455.11255, 526.31206)"><g><path d="M 13.375 -6.8125 L 32.671875 -6.8125 L 32.671875 0 L 5.859375 0 L 5.859375 -44.578125 L 13.375 -44.578125 Z M 13.375 -6.8125 "/></g></g></g><g fill="#ffffff" fill-opacity="1"><g transform="translate(492.501262, 526.31206)"><g><path d="M 43.75 -44.578125 L 43.75 -18.46875 C 43.75 -12.65625 42.03125 -8.070312 38.59375 -4.71875 C 35.15625 -1.363281 30.421875 0.3125 24.390625 0.3125 C 18.359375 0.3125 13.613281 -1.363281 10.15625 -4.71875 C 6.695312 -8.070312 4.96875 -12.65625 4.96875 -18.46875 L 4.96875 -44.578125 L 12.484375 -44.578125 L 12.484375 -18.46875 C 12.484375 -14.726562 13.554688 -11.785156 15.703125 -9.640625 C 17.847656 -7.503906 20.765625 -6.4375 24.453125 -6.4375 C 28.109375 -6.4375 30.984375 -7.492188 33.078125 -9.609375 C 35.179688 -11.734375 36.234375 -14.6875 36.234375 -18.46875 L 36.234375 -44.578125 Z M 43.75 -44.578125 "/></g></g></g><g fill="#ffffff" fill-opacity="1"><g transform="translate(544.539486, 526.31206)"><g><path d="M 20.5 -44.90625 C 26.28125 -44.90625 31.484375 -43.375 36.109375 -40.3125 L 32.984375 -33.6875 C 28.441406 -36.445312 24.09375 -37.828125 19.9375 -37.828125 C 17.6875 -37.828125 15.910156 -37.421875 14.609375 -36.609375 C 13.316406 -35.804688 12.671875 -34.660156 12.671875 -33.171875 C 12.671875 -31.691406 13.265625 -30.429688 14.453125 -29.390625 C 15.640625 -28.347656 17.125 -27.582031 18.90625 -27.09375 C 20.695312 -26.601562 22.628906 -25.988281 24.703125 -25.25 C 26.785156 -24.507812 28.71875 -23.722656 30.5 -22.890625 C 32.289062 -22.066406 33.769531 -20.773438 34.9375 -19.015625 C 36.101562 -17.253906 36.6875 -15.117188 36.6875 -12.609375 C 36.6875 -8.703125 35.125 -5.582031 32 -3.25 C 28.882812 -0.914062 24.84375 0.25 19.875 0.25 C 16.476562 0.25 13.1875 -0.382812 10 -1.65625 C 6.8125 -2.925781 4.03125 -4.644531 1.65625 -6.8125 L 4.90625 -13.3125 C 7.15625 -11.226562 9.628906 -9.625 12.328125 -8.5 C 15.023438 -7.375 17.582031 -6.8125 20 -6.8125 C 22.632812 -6.8125 24.679688 -7.289062 26.140625 -8.25 C 27.609375 -9.207031 28.34375 -10.535156 28.34375 -12.234375 C 28.34375 -13.753906 27.75 -15.035156 26.5625 -16.078125 C 25.375 -17.117188 23.882812 -17.882812 22.09375 -18.375 C 20.3125 -18.863281 18.378906 -19.457031 16.296875 -20.15625 C 14.222656 -20.851562 12.289062 -21.59375 10.5 -22.375 C 8.71875 -23.164062 7.234375 -24.429688 6.046875 -26.171875 C 4.859375 -27.910156 4.265625 -30.015625 4.265625 -32.484375 C 4.265625 -36.265625 5.75 -39.28125 8.71875 -41.53125 C 11.695312 -43.78125 15.625 -44.90625 20.5 -44.90625 Z M 20.5 -44.90625 "/></g></g></g><g fill="#b38f4b" fill-opacity="0.4"><g transform="translate(195.539796, 557.74036)"><g><path d="M 7.578125 -13.25 C 8.503906 -13.25 9.410156 -13.066406 10.296875 -12.703125 C 11.179688 -12.347656 11.945312 -11.851562 12.59375 -11.21875 L 11.28125 -9.59375 C 10.8125 -10.101562 10.25 -10.507812 9.59375 -10.8125 C 8.9375 -11.113281 8.273438 -11.265625 7.609375 -11.265625 C 6.296875 -11.265625 5.179688 -10.816406 4.265625 -9.921875 C 3.359375 -9.023438 2.90625 -7.929688 2.90625 -6.640625 C 2.90625 -5.328125 3.359375 -4.222656 4.265625 -3.328125 C 5.179688 -2.429688 6.296875 -1.984375 7.609375 -1.984375 C 8.984375 -1.984375 10.207031 -2.503906 11.28125 -3.546875 L 12.609375 -2.078125 C 11.929688 -1.410156 11.140625 -0.878906 10.234375 -0.484375 C 9.328125 -0.0976562 8.414062 0.09375 7.5 0.09375 C 5.5625 0.09375 3.929688 -0.546875 2.609375 -1.828125 C 1.296875 -3.117188 0.640625 -4.710938 0.640625 -6.609375 C 0.640625 -8.484375 1.304688 -10.054688 2.640625 -11.328125 C 3.984375 -12.609375 5.628906 -13.25 7.578125 -13.25 Z M 7.578125 -13.25 "/></g></g></g><g fill="#b38f4b" fill-opacity="0.4"><g transform="translate(208.665676, 557.74036)"><g><path d="M 11.15625 -11.1875 L 3.953125 -11.1875 L 3.953125 -7.625 L 10.40625 -7.625 L 10.40625 -5.640625 L 3.953125 -5.640625 L 3.953125 -2 L 11.375 -2 L 11.375 0 L 1.734375 0 L 1.734375 -13.1875 L 11.15625 -13.1875 Z M 11.15625 -11.1875 "/></g></g></g><g fill="#b38f4b" fill-opacity="0.4"><g transform="translate(221.019447, 557.74036)"><g><path d="M 13.171875 0 L 10.984375 0 L 3.953125 -9.453125 L 3.953125 0 L 1.734375 0 L 1.734375 -13.1875 L 3.921875 -13.1875 L 10.984375 -3.71875 L 10.984375 -13.1875 L 13.171875 -13.1875 Z M 13.171875 0 "/></g></g></g><g fill="#b38f4b" fill-opacity="0.4"><g transform="translate(235.934371, 557.74036)"><g><path d="M 10.734375 -11.1875 L 6.5625 -11.1875 L 6.5625 0 L 4.328125 0 L 4.328125 -11.1875 L 0.171875 -11.1875 L 0.171875 -13.1875 L 10.734375 -13.1875 Z M 10.734375 -11.1875 "/></g></g></g><g fill="#b38f4b" fill-opacity="0.4"><g transform="translate(246.838083, 557.74036)"><g><path d="M 10.09375 0 L 7.6875 -4 C 7.5625 -3.976562 7.359375 -3.96875 7.078125 -3.96875 L 3.953125 -3.96875 L 3.953125 0 L 1.734375 0 L 1.734375 -13.1875 L 7.078125 -13.1875 C 8.765625 -13.1875 10.070312 -12.789062 11 -12 C 11.9375 -11.21875 12.40625 -10.113281 12.40625 -8.6875 C 12.40625 -7.632812 12.164062 -6.742188 11.6875 -6.015625 C 11.21875 -5.285156 10.546875 -4.75 9.671875 -4.40625 L 12.625 0 Z M 3.953125 -5.96875 L 7.078125 -5.96875 C 9.210938 -5.96875 10.28125 -6.851562 10.28125 -8.625 C 10.28125 -10.332031 9.210938 -11.1875 7.078125 -11.1875 L 3.953125 -11.1875 Z M 3.953125 -5.96875 "/></g></g></g><g fill="#b38f4b" fill-opacity="0.4"><g transform="translate(260.453599, 557.74036)"><g><path d="M 11.15625 -11.1875 L 3.953125 -11.1875 L 3.953125 -7.625 L 10.40625 -7.625 L 10.40625 -5.640625 L 3.953125 -5.640625 L 3.953125 -2 L 11.375 -2 L 11.375 0 L 1.734375 0 L 1.734375 -13.1875 L 11.15625 -13.1875 Z M 11.15625 -11.1875 "/></g></g></g><g fill="#b38f4b" fill-opacity="0.4"><g transform="translate(272.80737, 557.74036)"><g/></g></g><g fill="#b38f4b" fill-opacity="0.4"><g transform="translate(277.666016, 557.74036)"><g><path d="M 1.734375 -13.1875 L 7.140625 -13.1875 C 9.109375 -13.1875 10.738281 -12.5625 12.03125 -11.3125 C 13.320312 -10.070312 13.96875 -8.5 13.96875 -6.59375 C 13.96875 -4.6875 13.316406 -3.109375 12.015625 -1.859375 C 10.722656 -0.617188 9.078125 0 7.078125 0 L 1.734375 0 Z M 3.953125 -11.1875 L 3.953125 -2 L 7.203125 -2 C 8.492188 -2 9.566406 -2.425781 10.421875 -3.28125 C 11.285156 -4.144531 11.71875 -5.242188 11.71875 -6.578125 C 11.71875 -7.910156 11.273438 -9.007812 10.390625 -9.875 C 9.503906 -10.75 8.410156 -11.1875 7.109375 -11.1875 Z M 3.953125 -11.1875 "/></g></g></g><g fill="#b38f4b" fill-opacity="0.4"><g transform="translate(292.260792, 557.74036)"><g><path d="M 11.15625 -11.1875 L 3.953125 -11.1875 L 3.953125 -7.625 L 10.40625 -7.625 L 10.40625 -5.640625 L 3.953125 -5.640625 L 3.953125 -2 L 11.375 -2 L 11.375 0 L 1.734375 0 L 1.734375 -13.1875 L 11.15625 -13.1875 Z M 11.15625 -11.1875 "/></g></g></g><g fill="#b38f4b" fill-opacity="0.4"><g transform="translate(304.614562, 557.74036)"><g/></g></g><g fill="#b38f4b" fill-opacity="0.4"><g transform="translate(309.473208, 557.74036)"><g><path d="M 1.734375 -13.1875 L 7.140625 -13.1875 C 9.109375 -13.1875 10.738281 -12.5625 12.03125 -11.3125 C 13.320312 -10.070312 13.96875 -8.5 13.96875 -6.59375 C 13.96875 -4.6875 13.316406 -3.109375 12.015625 -1.859375 C 10.722656 -0.617188 9.078125 0 7.078125 0 L 1.734375 0 Z M 3.953125 -11.1875 L 3.953125 -2 L 7.203125 -2 C 8.492188 -2 9.566406 -2.425781 10.421875 -3.28125 C 11.285156 -4.144531 11.71875 -5.242188 11.71875 -6.578125 C 11.71875 -7.910156 11.273438 -9.007812 10.390625 -9.875 C 9.503906 -10.75 8.410156 -11.1875 7.109375 -11.1875 Z M 3.953125 -11.1875 "/></g></g></g><g fill="#b38f4b" fill-opacity="0.4"><g transform="translate(324.067984, 557.74036)"><g><path d="M 3.953125 0 L 1.734375 0 L 1.734375 -13.1875 L 3.953125 -13.1875 Z M 3.953125 0 "/></g></g></g><g fill="#b38f4b" fill-opacity="0.4"><g transform="translate(329.75524, 557.74036)"><g><path d="M 10.25 -2.984375 L 3.59375 -2.984375 L 2.34375 0 L 0.015625 0 L 5.84375 -13.1875 L 8.125 -13.1875 L 13.890625 0 L 11.515625 0 Z M 9.40625 -4.953125 L 6.921875 -10.8125 L 4.421875 -4.953125 Z M 9.40625 -4.953125 "/></g></g></g><g fill="#b38f4b" fill-opacity="0.4"><g transform="translate(343.65323, 557.74036)"><g><path d="M 10.765625 -6.484375 L 12.703125 -6.484375 L 12.703125 -1.625 C 12.023438 -1.101562 11.222656 -0.6875 10.296875 -0.375 C 9.367188 -0.0625 8.460938 0.09375 7.578125 0.09375 C 5.628906 0.09375 3.984375 -0.546875 2.640625 -1.828125 C 1.304688 -3.117188 0.640625 -4.707031 0.640625 -6.59375 C 0.640625 -8.476562 1.316406 -10.054688 2.671875 -11.328125 C 4.023438 -12.609375 5.703125 -13.25 7.703125 -13.25 C 8.628906 -13.25 9.539062 -13.082031 10.4375 -12.75 C 11.34375 -12.414062 12.125 -11.96875 12.78125 -11.40625 L 11.515625 -9.765625 C 10.429688 -10.765625 9.160156 -11.265625 7.703125 -11.265625 C 6.359375 -11.265625 5.222656 -10.8125 4.296875 -9.90625 C 3.367188 -9.007812 2.90625 -7.90625 2.90625 -6.59375 C 2.90625 -5.269531 3.367188 -4.15625 4.296875 -3.25 C 5.234375 -2.351562 6.375 -1.90625 7.71875 -1.90625 C 8.738281 -1.90625 9.753906 -2.207031 10.765625 -2.8125 Z M 10.765625 -6.484375 "/></g></g></g><g fill="#b38f4b" fill-opacity="0.4"><g transform="translate(357.75837, 557.74036)"><g><path d="M 13.171875 0 L 10.984375 0 L 3.953125 -9.453125 L 3.953125 0 L 1.734375 0 L 1.734375 -13.1875 L 3.921875 -13.1875 L 10.984375 -3.71875 L 10.984375 -13.1875 L 13.171875 -13.1875 Z M 13.171875 0 "/></g></g></g><g fill="#b38f4b" fill-opacity="0.4"><g transform="translate(372.673294, 557.74036)"><g><path d="M 2.65625 -11.328125 C 4 -12.609375 5.65625 -13.25 7.625 -13.25 C 9.601562 -13.25 11.265625 -12.609375 12.609375 -11.328125 C 13.953125 -10.054688 14.625 -8.476562 14.625 -6.59375 C 14.625 -4.707031 13.953125 -3.117188 12.609375 -1.828125 C 11.265625 -0.546875 9.601562 0.09375 7.625 0.09375 C 5.65625 0.09375 4 -0.546875 2.65625 -1.828125 C 1.3125 -3.117188 0.640625 -4.707031 0.640625 -6.59375 C 0.640625 -8.476562 1.3125 -10.054688 2.65625 -11.328125 Z M 7.65625 -11.25 C 6.34375 -11.25 5.222656 -10.800781 4.296875 -9.90625 C 3.367188 -9.007812 2.90625 -7.90625 2.90625 -6.59375 C 2.90625 -5.289062 3.367188 -4.179688 4.296875 -3.265625 C 5.234375 -2.359375 6.347656 -1.90625 7.640625 -1.90625 C 8.941406 -1.90625 10.050781 -2.359375 10.96875 -3.265625 C 11.882812 -4.179688 12.34375 -5.289062 12.34375 -6.59375 C 12.34375 -7.90625 11.882812 -9.007812 10.96875 -9.90625 C 10.050781 -10.800781 8.945312 -11.25 7.65625 -11.25 Z M 7.65625 -11.25 "/></g></g></g><g fill="#b38f4b" fill-opacity="0.4"><g transform="translate(387.927191, 557.74036)"><g><path d="M 6.0625 -13.28125 C 7.769531 -13.28125 9.3125 -12.828125 10.6875 -11.921875 L 9.765625 -9.96875 C 8.421875 -10.78125 7.128906 -11.1875 5.890625 -11.1875 C 5.234375 -11.1875 4.710938 -11.066406 4.328125 -10.828125 C 3.941406 -10.597656 3.75 -10.257812 3.75 -9.8125 C 3.75 -9.375 3.925781 -9 4.28125 -8.6875 C 4.632812 -8.382812 5.070312 -8.160156 5.59375 -8.015625 C 6.125 -7.867188 6.695312 -7.6875 7.3125 -7.46875 C 7.925781 -7.25 8.492188 -7.015625 9.015625 -6.765625 C 9.546875 -6.523438 9.984375 -6.144531 10.328125 -5.625 C 10.679688 -5.101562 10.859375 -4.472656 10.859375 -3.734375 C 10.859375 -2.578125 10.394531 -1.648438 9.46875 -0.953125 C 8.539062 -0.265625 7.34375 0.078125 5.875 0.078125 C 4.875 0.078125 3.898438 -0.109375 2.953125 -0.484375 C 2.015625 -0.867188 1.191406 -1.378906 0.484375 -2.015625 L 1.453125 -3.9375 C 2.117188 -3.320312 2.847656 -2.847656 3.640625 -2.515625 C 4.441406 -2.179688 5.203125 -2.015625 5.921875 -2.015625 C 6.691406 -2.015625 7.296875 -2.15625 7.734375 -2.4375 C 8.171875 -2.71875 8.390625 -3.113281 8.390625 -3.625 C 8.390625 -4.070312 8.210938 -4.445312 7.859375 -4.75 C 7.503906 -5.0625 7.0625 -5.289062 6.53125 -5.4375 C 6.007812 -5.582031 5.441406 -5.757812 4.828125 -5.96875 C 4.210938 -6.175781 3.640625 -6.394531 3.109375 -6.625 C 2.578125 -6.851562 2.132812 -7.222656 1.78125 -7.734375 C 1.4375 -8.253906 1.265625 -8.878906 1.265625 -9.609375 C 1.265625 -10.722656 1.703125 -11.613281 2.578125 -12.28125 C 3.460938 -12.945312 4.625 -13.28125 6.0625 -13.28125 Z M 6.0625 -13.28125 "/></g></g></g><g fill="#b38f4b" fill-opacity="0.4"><g transform="translate(399.640676, 557.74036)"><g><path d="M 10.734375 -11.1875 L 6.5625 -11.1875 L 6.5625 0 L 4.328125 0 L 4.328125 -11.1875 L 0.171875 -11.1875 L 0.171875 -13.1875 L 10.734375 -13.1875 Z M 10.734375 -11.1875 "/></g></g></g><g fill="#b38f4b" fill-opacity="0.4"><g transform="translate(410.544377, 557.74036)"><g><path d="M 3.953125 0 L 1.734375 0 L 1.734375 -13.1875 L 3.953125 -13.1875 Z M 3.953125 0 "/></g></g></g><g fill="#b38f4b" fill-opacity="0.4"><g transform="translate(416.231633, 557.74036)"><g><path d="M 14.515625 -0.109375 L 15.390625 1.453125 C 14.296875 2.421875 13.101562 2.90625 11.8125 2.90625 C 11 2.90625 10.226562 2.660156 9.5 2.171875 C 8.769531 1.679688 8.140625 0.988281 7.609375 0.09375 C 5.640625 0.0820312 3.984375 -0.5625 2.640625 -1.84375 C 1.304688 -3.125 0.640625 -4.707031 0.640625 -6.59375 C 0.640625 -8.476562 1.3125 -10.054688 2.65625 -11.328125 C 4 -12.609375 5.65625 -13.25 7.625 -13.25 C 9.601562 -13.25 11.265625 -12.609375 12.609375 -11.328125 C 13.953125 -10.054688 14.625 -8.476562 14.625 -6.59375 C 14.625 -5.101562 14.1875 -3.78125 13.3125 -2.625 C 12.4375 -1.476562 11.289062 -0.6875 9.875 -0.25 C 10.625 0.570312 11.359375 0.984375 12.078125 0.984375 C 12.765625 0.984375 13.578125 0.617188 14.515625 -0.109375 Z M 4.296875 -9.90625 C 3.367188 -9.007812 2.90625 -7.90625 2.90625 -6.59375 C 2.90625 -5.289062 3.367188 -4.179688 4.296875 -3.265625 C 5.234375 -2.359375 6.347656 -1.90625 7.640625 -1.90625 C 8.941406 -1.90625 10.050781 -2.359375 10.96875 -3.265625 C 11.882812 -4.179688 12.34375 -5.289062 12.34375 -6.59375 C 12.34375 -7.90625 11.882812 -9.007812 10.96875 -9.90625 C 10.050781 -10.800781 8.945312 -11.25 7.65625 -11.25 C 6.34375 -11.25 5.222656 -10.800781 4.296875 -9.90625 Z M 4.296875 -9.90625 "/></g></g></g><g fill="#b38f4b" fill-opacity="0.4"><g transform="translate(431.767994, 557.74036)"><g><path d="M 12.953125 -13.1875 L 12.953125 -5.46875 C 12.953125 -3.75 12.441406 -2.390625 11.421875 -1.390625 C 10.398438 -0.398438 9 0.09375 7.21875 0.09375 C 5.4375 0.09375 4.03125 -0.398438 3 -1.390625 C 1.976562 -2.390625 1.46875 -3.75 1.46875 -5.46875 L 1.46875 -13.1875 L 3.6875 -13.1875 L 3.6875 -5.46875 C 3.6875 -4.363281 4.003906 -3.492188 4.640625 -2.859375 C 5.273438 -2.222656 6.140625 -1.90625 7.234375 -1.90625 C 8.316406 -1.90625 9.164062 -2.21875 9.78125 -2.84375 C 10.40625 -3.46875 10.71875 -4.34375 10.71875 -5.46875 L 10.71875 -13.1875 Z M 12.953125 -13.1875 "/></g></g></g><g fill="#b38f4b" fill-opacity="0.4"><g transform="translate(446.15562, 557.74036)"><g><path d="M 11.15625 -11.1875 L 3.953125 -11.1875 L 3.953125 -7.625 L 10.40625 -7.625 L 10.40625 -5.640625 L 3.953125 -5.640625 L 3.953125 -2 L 11.375 -2 L 11.375 0 L 1.734375 0 L 1.734375 -13.1875 L 11.15625 -13.1875 Z M 11.15625 -11.1875 "/></g></g></g><g fill="#b38f4b" fill-opacity="0.4"><g transform="translate(458.509402, 557.74036)"><g/></g></g><g fill="#b38f4b" fill-opacity="0.4"><g transform="translate(463.368059, 557.74036)"><g><path d="M 11.15625 -11.1875 L 3.953125 -11.1875 L 3.953125 -7.625 L 10.40625 -7.625 L 10.40625 -5.640625 L 3.953125 -5.640625 L 3.953125 -2 L 11.375 -2 L 11.375 0 L 1.734375 0 L 1.734375 -13.1875 L 11.15625 -13.1875 Z M 11.15625 -11.1875 "/></g></g></g><g fill="#b38f4b" fill-opacity="0.4"><g transform="translate(475.721819, 557.74036)"><g><path d="M 10.734375 -11.1875 L 6.5625 -11.1875 L 6.5625 0 L 4.328125 0 L 4.328125 -11.1875 L 0.171875 -11.1875 L 0.171875 -13.1875 L 10.734375 -13.1875 Z M 10.734375 -11.1875 "/></g></g></g><g fill="#b38f4b" fill-opacity="0.4"><g transform="translate(486.62552, 557.74036)"><g/></g></g><g fill="#b38f4b" fill-opacity="0.4"><g transform="translate(491.484177, 557.74036)"><g><path d="M 10.734375 -11.1875 L 6.5625 -11.1875 L 6.5625 0 L 4.328125 0 L 4.328125 -11.1875 L 0.171875 -11.1875 L 0.171875 -13.1875 L 10.734375 -13.1875 Z M 10.734375 -11.1875 "/></g></g></g><g fill="#b38f4b" fill-opacity="0.4"><g transform="translate(502.387879, 557.74036)"><g><path d="M 10.09375 0 L 7.6875 -4 C 7.5625 -3.976562 7.359375 -3.96875 7.078125 -3.96875 L 3.953125 -3.96875 L 3.953125 0 L 1.734375 0 L 1.734375 -13.1875 L 7.078125 -13.1875 C 8.765625 -13.1875 10.070312 -12.789062 11 -12 C 11.9375 -11.21875 12.40625 -10.113281 12.40625 -8.6875 C 12.40625 -7.632812 12.164062 -6.742188 11.6875 -6.015625 C 11.21875 -5.285156 10.546875 -4.75 9.671875 -4.40625 L 12.625 0 Z M 3.953125 -5.96875 L 7.078125 -5.96875 C 9.210938 -5.96875 10.28125 -6.851562 10.28125 -8.625 C 10.28125 -10.332031 9.210938 -11.1875 7.078125 -11.1875 L 3.953125 -11.1875 Z M 3.953125 -5.96875 "/></g></g></g><g fill="#b38f4b" fill-opacity="0.4"><g transform="translate(516.003394, 557.74036)"><g><path d="M 10.25 -2.984375 L 3.59375 -2.984375 L 2.34375 0 L 0.015625 0 L 5.84375 -13.1875 L 8.125 -13.1875 L 13.890625 0 L 11.515625 0 Z M 9.40625 -4.953125 L 6.921875 -10.8125 L 4.421875 -4.953125 Z M 9.40625 -4.953125 "/></g></g></g><g fill="#b38f4b" fill-opacity="0.4"><g transform="translate(529.901396, 557.74036)"><g><path d="M 3.953125 0 L 1.734375 0 L 1.734375 -13.1875 L 3.953125 -13.1875 Z M 3.953125 0 "/></g></g></g><g fill="#b38f4b" fill-opacity="0.4"><g transform="translate(535.588652, 557.74036)"><g><path d="M 10.734375 -11.1875 L 6.5625 -11.1875 L 6.5625 0 L 4.328125 0 L 4.328125 -11.1875 L 0.171875 -11.1875 L 0.171875 -13.1875 L 10.734375 -13.1875 Z M 10.734375 -11.1875 "/></g></g></g><g fill="#b38f4b" fill-opacity="0.4"><g transform="translate(546.492353, 557.74036)"><g><path d="M 11.15625 -11.1875 L 3.953125 -11.1875 L 3.953125 -7.625 L 10.40625 -7.625 L 10.40625 -5.640625 L 3.953125 -5.640625 L 3.953125 -2 L 11.375 -2 L 11.375 0 L 1.734375 0 L 1.734375 -13.1875 L 11.15625 -13.1875 Z M 11.15625 -11.1875 "/></g></g></g><g fill="#b38f4b" fill-opacity="0.4"><g transform="translate(558.846112, 557.74036)"><g><path d="M 15.671875 0 L 13.625 0 L 13.609375 -9.859375 L 9.4375 -1.375 L 7.984375 -1.375 L 3.828125 -9.859375 L 3.828125 0 L 1.734375 0 L 1.734375 -13.1875 L 4.375 -13.1875 L 8.71875 -4.421875 L 13.0625 -13.1875 L 15.671875 -13.1875 Z M 15.671875 0 "/></g></g></g><g fill="#b38f4b" fill-opacity="0.4"><g transform="translate(576.265667, 557.74036)"><g><path d="M 11.15625 -11.1875 L 3.953125 -11.1875 L 3.953125 -7.625 L 10.40625 -7.625 L 10.40625 -5.640625 L 3.953125 -5.640625 L 3.953125 -2 L 11.375 -2 L 11.375 0 L 1.734375 0 L 1.734375 -13.1875 L 11.15625 -13.1875 Z M 11.15625 -11.1875 "/></g></g></g><g fill="#b38f4b" fill-opacity="0.4"><g transform="translate(588.619426, 557.74036)"><g><path d="M 13.171875 0 L 10.984375 0 L 3.953125 -9.453125 L 3.953125 0 L 1.734375 0 L 1.734375 -13.1875 L 3.921875 -13.1875 L 10.984375 -3.71875 L 10.984375 -13.1875 L 13.171875 -13.1875 Z M 13.171875 0 "/></g></g></g><g fill="#b38f4b" fill-opacity="0.4"><g transform="translate(603.534373, 557.74036)"><g><path d="M 10.734375 -11.1875 L 6.5625 -11.1875 L 6.5625 0 L 4.328125 0 L 4.328125 -11.1875 L 0.171875 -11.1875 L 0.171875 -13.1875 L 10.734375 -13.1875 Z M 10.734375 -11.1875 "/></g></g></g><g fill="#ffffff" fill-opacity="1"><g transform="translate(195.539796, 557.74036)"><g><path d="M 7.578125 -13.25 C 8.503906 -13.25 9.410156 -13.066406 10.296875 -12.703125 C 11.179688 -12.347656 11.945312 -11.851562 12.59375 -11.21875 L 11.28125 -9.59375 C 10.8125 -10.101562 10.25 -10.507812 9.59375 -10.8125 C 8.9375 -11.113281 8.273438 -11.265625 7.609375 -11.265625 C 6.296875 -11.265625 5.179688 -10.816406 4.265625 -9.921875 C 3.359375 -9.023438 2.90625 -7.929688 2.90625 -6.640625 C 2.90625 -5.328125 3.359375 -4.222656 4.265625 -3.328125 C 5.179688 -2.429688 6.296875 -1.984375 7.609375 -1.984375 C 8.984375 -1.984375 10.207031 -2.503906 11.28125 -3.546875 L 12.609375 -2.078125 C 11.929688 -1.410156 11.140625 -0.878906 10.234375 -0.484375 C 9.328125 -0.0976562 8.414062 0.09375 7.5 0.09375 C 5.5625 0.09375 3.929688 -0.546875 2.609375 -1.828125 C 1.296875 -3.117188 0.640625 -4.710938 0.640625 -6.609375 C 0.640625 -8.484375 1.304688 -10.054688 2.640625 -11.328125 C 3.984375 -12.609375 5.628906 -13.25 7.578125 -13.25 Z M 7.578125 -13.25 "/></g></g></g><g fill="#ffffff" fill-opacity="1"><g transform="translate(208.665676, 557.74036)"><g><path d="M 11.15625 -11.1875 L 3.953125 -11.1875 L 3.953125 -7.625 L 10.40625 -7.625 L 10.40625 -5.640625 L 3.953125 -5.640625 L 3.953125 -2 L 11.375 -2 L 11.375 0 L 1.734375 0 L 1.734375 -13.1875 L 11.15625 -13.1875 Z M 11.15625 -11.1875 "/></g></g></g><g fill="#ffffff" fill-opacity="1"><g transform="translate(221.019447, 557.74036)"><g><path d="M 13.171875 0 L 10.984375 0 L 3.953125 -9.453125 L 3.953125 0 L 1.734375 0 L 1.734375 -13.1875 L 3.921875 -13.1875 L 10.984375 -3.71875 L 10.984375 -13.1875 L 13.171875 -13.1875 Z M 13.171875 0 "/></g></g></g><g fill="#ffffff" fill-opacity="1"><g transform="translate(235.934371, 557.74036)"><g><path d="M 10.734375 -11.1875 L 6.5625 -11.1875 L 6.5625 0 L 4.328125 0 L 4.328125 -11.1875 L 0.171875 -11.1875 L 0.171875 -13.1875 L 10.734375 -13.1875 Z M 10.734375 -11.1875 "/></g></g></g><g fill="#ffffff" fill-opacity="1"><g transform="translate(246.838083, 557.74036)"><g><path d="M 10.09375 0 L 7.6875 -4 C 7.5625 -3.976562 7.359375 -3.96875 7.078125 -3.96875 L 3.953125 -3.96875 L 3.953125 0 L 1.734375 0 L 1.734375 -13.1875 L 7.078125 -13.1875 C 8.765625 -13.1875 10.070312 -12.789062 11 -12 C 11.9375 -11.21875 12.40625 -10.113281 12.40625 -8.6875 C 12.40625 -7.632812 12.164062 -6.742188 11.6875 -6.015625 C 11.21875 -5.285156 10.546875 -4.75 9.671875 -4.40625 L 12.625 0 Z M 3.953125 -5.96875 L 7.078125 -5.96875 C 9.210938 -5.96875 10.28125 -6.851562 10.28125 -8.625 C 10.28125 -10.332031 9.210938 -11.1875 7.078125 -11.1875 L 3.953125 -11.1875 Z M 3.953125 -5.96875 "/></g></g></g><g fill="#ffffff" fill-opacity="1"><g transform="translate(260.453599, 557.74036)"><g><path d="M 11.15625 -11.1875 L 3.953125 -11.1875 L 3.953125 -7.625 L 10.40625 -7.625 L 10.40625 -5.640625 L 3.953125 -5.640625 L 3.953125 -2 L 11.375 -2 L 11.375 0 L 1.734375 0 L 1.734375 -13.1875 L 11.15625 -13.1875 Z M 11.15625 -11.1875 "/></g></g></g><g fill="#ffffff" fill-opacity="1"><g transform="translate(272.80737, 557.74036)"><g/></g></g><g fill="#ffffff" fill-opacity="1"><g transform="translate(277.666016, 557.74036)"><g><path d="M 1.734375 -13.1875 L 7.140625 -13.1875 C 9.109375 -13.1875 10.738281 -12.5625 12.03125 -11.3125 C 13.320312 -10.070312 13.96875 -8.5 13.96875 -6.59375 C 13.96875 -4.6875 13.316406 -3.109375 12.015625 -1.859375 C 10.722656 -0.617188 9.078125 0 7.078125 0 L 1.734375 0 Z M 3.953125 -11.1875 L 3.953125 -2 L 7.203125 -2 C 8.492188 -2 9.566406 -2.425781 10.421875 -3.28125 C 11.285156 -4.144531 11.71875 -5.242188 11.71875 -6.578125 C 11.71875 -7.910156 11.273438 -9.007812 10.390625 -9.875 C 9.503906 -10.75 8.410156 -11.1875 7.109375 -11.1875 Z M 3.953125 -11.1875 "/></g></g></g><g fill="#ffffff" fill-opacity="1"><g transform="translate(292.260792, 557.74036)"><g><path d="M 11.15625 -11.1875 L 3.953125 -11.1875 L 3.953125 -7.625 L 10.40625 -7.625 L 10.40625 -5.640625 L 3.953125 -5.640625 L 3.953125 -2 L 11.375 -2 L 11.375 0 L 1.734375 0 L 1.734375 -13.1875 L 11.15625 -13.1875 Z M 11.15625 -11.1875 "/></g></g></g><g fill="#ffffff" fill-opacity="1"><g transform="translate(304.614562, 557.74036)"><g/></g></g><g fill="#ffffff" fill-opacity="1"><g transform="translate(309.473208, 557.74036)"><g><path d="M 1.734375 -13.1875 L 7.140625 -13.1875 C 9.109375 -13.1875 10.738281 -12.5625 12.03125 -11.3125 C 13.320312 -10.070312 13.96875 -8.5 13.96875 -6.59375 C 13.96875 -4.6875 13.316406 -3.109375 12.015625 -1.859375 C 10.722656 -0.617188 9.078125 0 7.078125 0 L 1.734375 0 Z M 3.953125 -11.1875 L 3.953125 -2 L 7.203125 -2 C 8.492188 -2 9.566406 -2.425781 10.421875 -3.28125 C 11.285156 -4.144531 11.71875 -5.242188 11.71875 -6.578125 C 11.71875 -7.910156 11.273438 -9.007812 10.390625 -9.875 C 9.503906 -10.75 8.410156 -11.1875 7.109375 -11.1875 Z M 3.953125 -11.1875 "/></g></g></g><g fill="#ffffff" fill-opacity="1"><g transform="translate(324.067984, 557.74036)"><g><path d="M 3.953125 0 L 1.734375 0 L 1.734375 -13.1875 L 3.953125 -13.1875 Z M 3.953125 0 "/></g></g></g><g fill="#ffffff" fill-opacity="1"><g transform="translate(329.75524, 557.74036)"><g><path d="M 10.25 -2.984375 L 3.59375 -2.984375 L 2.34375 0 L 0.015625 0 L 5.84375 -13.1875 L 8.125 -13.1875 L 13.890625 0 L 11.515625 0 Z M 9.40625 -4.953125 L 6.921875 -10.8125 L 4.421875 -4.953125 Z M 9.40625 -4.953125 "/></g></g></g><g fill="#ffffff" fill-opacity="1"><g transform="translate(343.65323, 557.74036)"><g><path d="M 10.765625 -6.484375 L 12.703125 -6.484375 L 12.703125 -1.625 C 12.023438 -1.101562 11.222656 -0.6875 10.296875 -0.375 C 9.367188 -0.0625 8.460938 0.09375 7.578125 0.09375 C 5.628906 0.09375 3.984375 -0.546875 2.640625 -1.828125 C 1.304688 -3.117188 0.640625 -4.707031 0.640625 -6.59375 C 0.640625 -8.476562 1.316406 -10.054688 2.671875 -11.328125 C 4.023438 -12.609375 5.703125 -13.25 7.703125 -13.25 C 8.628906 -13.25 9.539062 -13.082031 10.4375 -12.75 C 11.34375 -12.414062 12.125 -11.96875 12.78125 -11.40625 L 11.515625 -9.765625 C 10.429688 -10.765625 9.160156 -11.265625 7.703125 -11.265625 C 6.359375 -11.265625 5.222656 -10.8125 4.296875 -9.90625 C 3.367188 -9.007812 2.90625 -7.90625 2.90625 -6.59375 C 2.90625 -5.269531 3.367188 -4.15625 4.296875 -3.25 C 5.234375 -2.351562 6.375 -1.90625 7.71875 -1.90625 C 8.738281 -1.90625 9.753906 -2.207031 10.765625 -2.8125 Z M 10.765625 -6.484375 "/></g></g></g><g fill="#ffffff" fill-opacity="1"><g transform="translate(357.75837, 557.74036)"><g><path d="M 13.171875 0 L 10.984375 0 L 3.953125 -9.453125 L 3.953125 0 L 1.734375 0 L 1.734375 -13.1875 L 3.921875 -13.1875 L 10.984375 -3.71875 L 10.984375 -13.1875 L 13.171875 -13.1875 Z M 13.171875 0 "/></g></g></g><g fill="#ffffff" fill-opacity="1"><g transform="translate(372.673294, 557.74036)"><g><path d="M 2.65625 -11.328125 C 4 -12.609375 5.65625 -13.25 7.625 -13.25 C 9.601562 -13.25 11.265625 -12.609375 12.609375 -11.328125 C 13.953125 -10.054688 14.625 -8.476562 14.625 -6.59375 C 14.625 -4.707031 13.953125 -3.117188 12.609375 -1.828125 C 11.265625 -0.546875 9.601562 0.09375 7.625 0.09375 C 5.65625 0.09375 4 -0.546875 2.65625 -1.828125 C 1.3125 -3.117188 0.640625 -4.707031 0.640625 -6.59375 C 0.640625 -8.476562 1.3125 -10.054688 2.65625 -11.328125 Z M 7.65625 -11.25 C 6.34375 -11.25 5.222656 -10.800781 4.296875 -9.90625 C 3.367188 -9.007812 2.90625 -7.90625 2.90625 -6.59375 C 2.90625 -5.289062 3.367188 -4.179688 4.296875 -3.265625 C 5.234375 -2.359375 6.347656 -1.90625 7.640625 -1.90625 C 8.941406 -1.90625 10.050781 -2.359375 10.96875 -3.265625 C 11.882812 -4.179688 12.34375 -5.289062 12.34375 -6.59375 C 12.34375 -7.90625 11.882812 -9.007812 10.96875 -9.90625 C 10.050781 -10.800781 8.945312 -11.25 7.65625 -11.25 Z M 7.65625 -11.25 "/></g></g></g><g fill="#ffffff" fill-opacity="1"><g transform="translate(387.927191, 557.74036)"><g><path d="M 6.0625 -13.28125 C 7.769531 -13.28125 9.3125 -12.828125 10.6875 -11.921875 L 9.765625 -9.96875 C 8.421875 -10.78125 7.128906 -11.1875 5.890625 -11.1875 C 5.234375 -11.1875 4.710938 -11.066406 4.328125 -10.828125 C 3.941406 -10.597656 3.75 -10.257812 3.75 -9.8125 C 3.75 -9.375 3.925781 -9 4.28125 -8.6875 C 4.632812 -8.382812 5.070312 -8.160156 5.59375 -8.015625 C 6.125 -7.867188 6.695312 -7.6875 7.3125 -7.46875 C 7.925781 -7.25 8.492188 -7.015625 9.015625 -6.765625 C 9.546875 -6.523438 9.984375 -6.144531 10.328125 -5.625 C 10.679688 -5.101562 10.859375 -4.472656 10.859375 -3.734375 C 10.859375 -2.578125 10.394531 -1.648438 9.46875 -0.953125 C 8.539062 -0.265625 7.34375 0.078125 5.875 0.078125 C 4.875 0.078125 3.898438 -0.109375 2.953125 -0.484375 C 2.015625 -0.867188 1.191406 -1.378906 0.484375 -2.015625 L 1.453125 -3.9375 C 2.117188 -3.320312 2.847656 -2.847656 3.640625 -2.515625 C 4.441406 -2.179688 5.203125 -2.015625 5.921875 -2.015625 C 6.691406 -2.015625 7.296875 -2.15625 7.734375 -2.4375 C 8.171875 -2.71875 8.390625 -3.113281 8.390625 -3.625 C 8.390625 -4.070312 8.210938 -4.445312 7.859375 -4.75 C 7.503906 -5.0625 7.0625 -5.289062 6.53125 -5.4375 C 6.007812 -5.582031 5.441406 -5.757812 4.828125 -5.96875 C 4.210938 -6.175781 3.640625 -6.394531 3.109375 -6.625 C 2.578125 -6.851562 2.132812 -7.222656 1.78125 -7.734375 C 1.4375 -8.253906 1.265625 -8.878906 1.265625 -9.609375 C 1.265625 -10.722656 1.703125 -11.613281 2.578125 -12.28125 C 3.460938 -12.945312 4.625 -13.28125 6.0625 -13.28125 Z M 6.0625 -13.28125 "/></g></g></g><g fill="#ffffff" fill-opacity="1"><g transform="translate(399.640676, 557.74036)"><g><path d="M 10.734375 -11.1875 L 6.5625 -11.1875 L 6.5625 0 L 4.328125 0 L 4.328125 -11.1875 L 0.171875 -11.1875 L 0.171875 -13.1875 L 10.734375 -13.1875 Z M 10.734375 -11.1875 "/></g></g></g><g fill="#ffffff" fill-opacity="1"><g transform="translate(410.544377, 557.74036)"><g><path d="M 3.953125 0 L 1.734375 0 L 1.734375 -13.1875 L 3.953125 -13.1875 Z M 3.953125 0 "/></g></g></g><g fill="#ffffff" fill-opacity="1"><g transform="translate(416.231633, 557.74036)"><g><path d="M 14.515625 -0.109375 L 15.390625 1.453125 C 14.296875 2.421875 13.101562 2.90625 11.8125 2.90625 C 11 2.90625 10.226562 2.660156 9.5 2.171875 C 8.769531 1.679688 8.140625 0.988281 7.609375 0.09375 C 5.640625 0.0820312 3.984375 -0.5625 2.640625 -1.84375 C 1.304688 -3.125 0.640625 -4.707031 0.640625 -6.59375 C 0.640625 -8.476562 1.3125 -10.054688 2.65625 -11.328125 C 4 -12.609375 5.65625 -13.25 7.625 -13.25 C 9.601562 -13.25 11.265625 -12.609375 12.609375 -11.328125 C 13.953125 -10.054688 14.625 -8.476562 14.625 -6.59375 C 14.625 -5.101562 14.1875 -3.78125 13.3125 -2.625 C 12.4375 -1.476562 11.289062 -0.6875 9.875 -0.25 C 10.625 0.570312 11.359375 0.984375 12.078125 0.984375 C 12.765625 0.984375 13.578125 0.617188 14.515625 -0.109375 Z M 4.296875 -9.90625 C 3.367188 -9.007812 2.90625 -7.90625 2.90625 -6.59375 C 2.90625 -5.289062 3.367188 -4.179688 4.296875 -3.265625 C 5.234375 -2.359375 6.347656 -1.90625 7.640625 -1.90625 C 8.941406 -1.90625 10.050781 -2.359375 10.96875 -3.265625 C 11.882812 -4.179688 12.34375 -5.289062 12.34375 -6.59375 C 12.34375 -7.90625 11.882812 -9.007812 10.96875 -9.90625 C 10.050781 -10.800781 8.945312 -11.25 7.65625 -11.25 C 6.34375 -11.25 5.222656 -10.800781 4.296875 -9.90625 Z M 4.296875 -9.90625 "/></g></g></g><g fill="#ffffff" fill-opacity="1"><g transform="translate(431.767994, 557.74036)"><g><path d="M 12.953125 -13.1875 L 12.953125 -5.46875 C 12.953125 -3.75 12.441406 -2.390625 11.421875 -1.390625 C 10.398438 -0.398438 9 0.09375 7.21875 0.09375 C 5.4375 0.09375 4.03125 -0.398438 3 -1.390625 C 1.976562 -2.390625 1.46875 -3.75 1.46875 -5.46875 L 1.46875 -13.1875 L 3.6875 -13.1875 L 3.6875 -5.46875 C 3.6875 -4.363281 4.003906 -3.492188 4.640625 -2.859375 C 5.273438 -2.222656 6.140625 -1.90625 7.234375 -1.90625 C 8.316406 -1.90625 9.164062 -2.21875 9.78125 -2.84375 C 10.40625 -3.46875 10.71875 -4.34375 10.71875 -5.46875 L 10.71875 -13.1875 Z M 12.953125 -13.1875 "/></g></g></g><g fill="#ffffff" fill-opacity="1"><g transform="translate(446.15562, 557.74036)"><g><path d="M 11.15625 -11.1875 L 3.953125 -11.1875 L 3.953125 -7.625 L 10.40625 -7.625 L 10.40625 -5.640625 L 3.953125 -5.640625 L 3.953125 -2 L 11.375 -2 L 11.375 0 L 1.734375 0 L 1.734375 -13.1875 L 11.15625 -13.1875 Z M 11.15625 -11.1875 "/></g></g></g><g fill="#ffffff" fill-opacity="1"><g transform="translate(458.509402, 557.74036)"><g/></g></g><g fill="#ffffff" fill-opacity="1"><g transform="translate(463.368059, 557.74036)"><g><path d="M 11.15625 -11.1875 L 3.953125 -11.1875 L 3.953125 -7.625 L 10.40625 -7.625 L 10.40625 -5.640625 L 3.953125 -5.640625 L 3.953125 -2 L 11.375 -2 L 11.375 0 L 1.734375 0 L 1.734375 -13.1875 L 11.15625 -13.1875 Z M 11.15625 -11.1875 "/></g></g></g><g fill="#ffffff" fill-opacity="1"><g transform="translate(475.721819, 557.74036)"><g><path d="M 10.734375 -11.1875 L 6.5625 -11.1875 L 6.5625 0 L 4.328125 0 L 4.328125 -11.1875 L 0.171875 -11.1875 L 0.171875 -13.1875 L 10.734375 -13.1875 Z M 10.734375 -11.1875 "/></g></g></g><g fill="#ffffff" fill-opacity="1"><g transform="translate(486.62552, 557.74036)"><g/></g></g><g fill="#ffffff" fill-opacity="1"><g transform="translate(491.484177, 557.74036)"><g><path d="M 10.734375 -11.1875 L 6.5625 -11.1875 L 6.5625 0 L 4.328125 0 L 4.328125 -11.1875 L 0.171875 -11.1875 L 0.171875 -13.1875 L 10.734375 -13.1875 Z M 10.734375 -11.1875 "/></g></g></g><g fill="#ffffff" fill-opacity="1"><g transform="translate(502.387879, 557.74036)"><g><path d="M 10.09375 0 L 7.6875 -4 C 7.5625 -3.976562 7.359375 -3.96875 7.078125 -3.96875 L 3.953125 -3.96875 L 3.953125 0 L 1.734375 0 L 1.734375 -13.1875 L 7.078125 -13.1875 C 8.765625 -13.1875 10.070312 -12.789062 11 -12 C 11.9375 -11.21875 12.40625 -10.113281 12.40625 -8.6875 C 12.40625 -7.632812 12.164062 -6.742188 11.6875 -6.015625 C 11.21875 -5.285156 10.546875 -4.75 9.671875 -4.40625 L 12.625 0 Z M 3.953125 -5.96875 L 7.078125 -5.96875 C 9.210938 -5.96875 10.28125 -6.851562 10.28125 -8.625 C 10.28125 -10.332031 9.210938 -11.1875 7.078125 -11.1875 L 3.953125 -11.1875 Z M 3.953125 -5.96875 "/></g></g></g><g fill="#ffffff" fill-opacity="1"><g transform="translate(516.003394, 557.74036)"><g><path d="M 10.25 -2.984375 L 3.59375 -2.984375 L 2.34375 0 L 0.015625 0 L 5.84375 -13.1875 L 8.125 -13.1875 L 13.890625 0 L 11.515625 0 Z M 9.40625 -4.953125 L 6.921875 -10.8125 L 4.421875 -4.953125 Z M 9.40625 -4.953125 "/></g></g></g><g fill="#ffffff" fill-opacity="1"><g transform="translate(529.901396, 557.74036)"><g><path d="M 3.953125 0 L 1.734375 0 L 1.734375 -13.1875 L 3.953125 -13.1875 Z M 3.953125 0 "/></g></g></g><g fill="#ffffff" fill-opacity="1"><g transform="translate(535.588652, 557.74036)"><g><path d="M 10.734375 -11.1875 L 6.5625 -11.1875 L 6.5625 0 L 4.328125 0 L 4.328125 -11.1875 L 0.171875 -11.1875 L 0.171875 -13.1875 L 10.734375 -13.1875 Z M 10.734375 -11.1875 "/></g></g></g><g fill="#ffffff" fill-opacity="1"><g transform="translate(546.492353, 557.74036)"><g><path d="M 11.15625 -11.1875 L 3.953125 -11.1875 L 3.953125 -7.625 L 10.40625 -7.625 L 10.40625 -5.640625 L 3.953125 -5.640625 L 3.953125 -2 L 11.375 -2 L 11.375 0 L 1.734375 0 L 1.734375 -13.1875 L 11.15625 -13.1875 Z M 11.15625 -11.1875 "/></g></g></g><g fill="#ffffff" fill-opacity="1"><g transform="translate(558.846112, 557.74036)"><g><path d="M 15.671875 0 L 13.625 0 L 13.609375 -9.859375 L 9.4375 -1.375 L 7.984375 -1.375 L 3.828125 -9.859375 L 3.828125 0 L 1.734375 0 L 1.734375 -13.1875 L 4.375 -13.1875 L 8.71875 -4.421875 L 13.0625 -13.1875 L 15.671875 -13.1875 Z M 15.671875 0 "/></g></g></g><g fill="#ffffff" fill-opacity="1"><g transform="translate(576.265667, 557.74036)"><g><path d="M 11.15625 -11.1875 L 3.953125 -11.1875 L 3.953125 -7.625 L 10.40625 -7.625 L 10.40625 -5.640625 L 3.953125 -5.640625 L 3.953125 -2 L 11.375 -2 L 11.375 0 L 1.734375 0 L 1.734375 -13.1875 L 11.15625 -13.1875 Z M 11.15625 -11.1875 "/></g></g></g><g fill="#ffffff" fill-opacity="1"><g transform="translate(588.619426, 557.74036)"><g><path d="M 13.171875 0 L 10.984375 0 L 3.953125 -9.453125 L 3.953125 0 L 1.734375 0 L 1.734375 -13.1875 L 3.921875 -13.1875 L 10.984375 -3.71875 L 10.984375 -13.1875 L 13.171875 -13.1875 Z M 13.171875 0 "/></g></g></g><g fill="#ffffff" fill-opacity="1"><g transform="translate(603.534373, 557.74036)"><g><path d="M 10.734375 -11.1875 L 6.5625 -11.1875 L 6.5625 0 L 4.328125 0 L 4.328125 -11.1875 L 0.171875 -11.1875 L 0.171875 -13.1875 L 10.734375 -13.1875 Z M 10.734375 -11.1875 "/></g></g></g></svg>