<svg xmlns="http://www.w3.org/2000/svg" xmlns:xlink="http://www.w3.org/1999/xlink" width="1080" zoomAndPan="magnify" viewBox="0 0 810 809.999993" height="1080" preserveAspectRatio="xMidYMid meet" version="1.0"><defs><g/><clipPath id="e14b455a47"><path d="M 112.695312 390 L 230.734375 390 L 230.734375 420 L 112.695312 420 Z M 112.695312 390 " clip-rule="nonzero"/></clipPath><clipPath id="fe9d4ff4c6"><path d="M 157 345.820312 L 187 345.820312 L 187 463.859375 L 157 463.859375 Z M 157 345.820312 " clip-rule="nonzero"/></clipPath></defs><rect x="-81" width="972" fill="#ffffff" y="-80.999999" height="971.999992" fill-opacity="1"/><rect x="-81" width="972" fill="#ffffff" y="-80.999999" height="971.999992" fill-opacity="1"/><g clip-path="url(#e14b455a47)"><path fill="#000000" d="M 231.046875 404.992188 C 231.046875 412.894531 224.617188 419.320312 216.722656 419.320312 L 192.429688 419.320312 L 192.429688 413.089844 L 216.722656 413.089844 C 221.1875 413.089844 224.820312 409.457031 224.820312 404.992188 C 224.820312 400.53125 221.1875 396.894531 216.722656 396.894531 L 170 396.894531 L 170 390.667969 L 216.71875 390.667969 C 224.617188 390.667969 231.046875 397.097656 231.046875 404.992188 Z M 173.738281 413.089844 L 127.019531 413.089844 C 122.558594 413.089844 118.921875 409.457031 118.921875 404.992188 C 118.921875 400.53125 122.558594 396.894531 127.019531 396.894531 L 151.3125 396.894531 L 151.3125 390.667969 L 127.019531 390.667969 C 119.125 390.667969 112.695312 397.097656 112.695312 404.992188 C 112.695312 412.890625 119.125 419.324219 127.019531 419.324219 L 173.738281 419.324219 Z M 173.738281 413.089844 " fill-opacity="1" fill-rule="nonzero"/></g><g clip-path="url(#fe9d4ff4c6)"><path fill="#000000" d="M 163.773438 401.882812 L 186.199219 401.882812 L 186.199219 449.847656 C 186.199219 457.746094 179.769531 464.171875 171.875 464.171875 C 163.972656 464.171875 157.546875 457.742188 157.546875 449.847656 L 157.546875 425.554688 L 163.777344 425.554688 L 163.777344 449.847656 C 163.777344 454.308594 167.410156 457.945312 171.875 457.945312 C 176.335938 457.945312 179.96875 454.308594 179.96875 449.847656 L 179.96875 408.109375 L 157.546875 408.109375 L 157.546875 360.144531 C 157.542969 352.246094 163.972656 345.820312 171.871094 345.820312 C 179.769531 345.820312 186.199219 352.246094 186.199219 360.144531 L 186.199219 384.4375 L 179.96875 384.4375 L 179.96875 360.144531 C 179.96875 355.679688 176.335938 352.046875 171.875 352.046875 C 167.410156 352.046875 163.777344 355.679688 163.777344 360.144531 L 163.777344 401.882812 Z M 163.773438 401.882812 " fill-opacity="1" fill-rule="nonzero"/></g><g fill="#000000" fill-opacity="1"><g transform="translate(252.580248, 415.420501)"><g><path d="M 22.53125 -49.328125 C 28.875 -49.328125 34.585938 -47.648438 39.671875 -44.296875 L 36.25 -37.015625 C 31.25 -40.046875 26.46875 -41.5625 21.90625 -41.5625 C 19.425781 -41.5625 17.472656 -41.117188 16.046875 -40.234375 C 14.628906 -39.347656 13.921875 -38.085938 13.921875 -36.453125 C 13.921875 -34.816406 14.570312 -33.425781 15.875 -32.28125 C 17.1875 -31.144531 18.820312 -30.304688 20.78125 -29.765625 C 22.738281 -29.234375 24.859375 -28.554688 27.140625 -27.734375 C 29.429688 -26.921875 31.554688 -26.0625 33.515625 -25.15625 C 35.472656 -24.25 37.09375 -22.828125 38.375 -20.890625 C 39.65625 -18.953125 40.296875 -16.609375 40.296875 -13.859375 C 40.296875 -9.566406 38.582031 -6.132812 35.15625 -3.5625 C 31.726562 -1 27.285156 0.28125 21.828125 0.28125 C 18.097656 0.28125 14.484375 -0.414062 10.984375 -1.8125 C 7.484375 -3.21875 4.425781 -5.109375 1.8125 -7.484375 L 5.390625 -14.625 C 7.859375 -12.332031 10.570312 -10.566406 13.53125 -9.328125 C 16.5 -8.097656 19.3125 -7.484375 21.96875 -7.484375 C 24.863281 -7.484375 27.113281 -8.007812 28.71875 -9.0625 C 30.332031 -10.113281 31.140625 -11.570312 31.140625 -13.4375 C 31.140625 -15.113281 30.484375 -16.519531 29.171875 -17.65625 C 27.867188 -18.800781 26.238281 -19.640625 24.28125 -20.171875 C 22.320312 -20.710938 20.195312 -21.367188 17.90625 -22.140625 C 15.625 -22.910156 13.503906 -23.726562 11.546875 -24.59375 C 9.585938 -25.457031 7.953125 -26.84375 6.640625 -28.75 C 5.335938 -30.664062 4.6875 -32.976562 4.6875 -35.6875 C 4.6875 -39.832031 6.316406 -43.140625 9.578125 -45.609375 C 12.847656 -48.085938 17.164062 -49.328125 22.53125 -49.328125 Z M 22.53125 -49.328125 "/></g></g></g><g fill="#000000" fill-opacity="1"><g transform="translate(299.80912, 415.420501)"><g><path d="M 39.875 -41.5625 L 24.34375 -41.5625 L 24.34375 0 L 16.09375 0 L 16.09375 -41.5625 L 0.625 -41.5625 L 0.625 -48.984375 L 39.875 -48.984375 Z M 39.875 -41.5625 "/></g></g></g><g fill="#000000" fill-opacity="1"><g transform="translate(344.029381, 415.420501)"><g><path d="M 38.0625 -11.0625 L 13.359375 -11.0625 L 8.671875 0 L 0.0625 0 L 21.6875 -48.984375 L 30.15625 -48.984375 L 51.5625 0 L 42.75 0 Z M 34.921875 -18.40625 L 25.671875 -40.15625 L 16.4375 -18.40625 Z M 34.921875 -18.40625 "/></g></g></g><g fill="#000000" fill-opacity="1"><g transform="translate(399.374501, 415.420501)"><g><path d="M 37.5 0 L 28.546875 -14.828125 C 28.078125 -14.785156 27.332031 -14.765625 26.3125 -14.765625 L 14.6875 -14.765625 L 14.6875 0 L 6.4375 0 L 6.4375 -48.984375 L 26.3125 -48.984375 C 32.5625 -48.984375 37.410156 -47.523438 40.859375 -44.609375 C 44.316406 -41.691406 46.046875 -37.570312 46.046875 -32.25 C 46.046875 -28.332031 45.171875 -25.019531 43.421875 -22.3125 C 41.671875 -19.613281 39.160156 -17.632812 35.890625 -16.375 L 46.875 0 Z M 14.6875 -22.1875 L 26.3125 -22.1875 C 34.238281 -22.1875 38.203125 -25.472656 38.203125 -32.046875 C 38.203125 -38.390625 34.238281 -41.5625 26.3125 -41.5625 L 14.6875 -41.5625 Z M 14.6875 -22.1875 "/></g></g></g><g fill="#000000" fill-opacity="1"><g transform="translate(453.67009, 415.420501)"><g><path d="M 6.4375 -48.984375 L 25.953125 -48.984375 C 32.109375 -48.984375 36.878906 -47.523438 40.265625 -44.609375 C 43.648438 -41.691406 45.34375 -37.570312 45.34375 -32.25 C 45.34375 -26.695312 43.648438 -22.394531 40.265625 -19.34375 C 36.878906 -16.289062 32.109375 -14.765625 25.953125 -14.765625 L 14.6875 -14.765625 L 14.6875 0 L 6.4375 0 Z M 14.6875 -41.5625 L 14.6875 -22.1875 L 25.609375 -22.1875 C 33.492188 -22.1875 37.4375 -25.472656 37.4375 -32.046875 C 37.4375 -38.390625 33.492188 -41.5625 25.609375 -41.5625 Z M 14.6875 -41.5625 "/></g></g></g><g fill="#000000" fill-opacity="1"><g transform="translate(504.467296, 415.420501)"><g><path d="M 14.6875 -7.484375 L 35.890625 -7.484375 L 35.890625 0 L 6.4375 0 L 6.4375 -48.984375 L 14.6875 -48.984375 Z M 14.6875 -7.484375 "/></g></g></g><g fill="#000000" fill-opacity="1"><g transform="translate(545.539011, 415.420501)"><g><path d="M 48.0625 -48.984375 L 48.0625 -20.296875 C 48.0625 -13.898438 46.171875 -8.859375 42.390625 -5.171875 C 38.617188 -1.492188 33.421875 0.34375 26.796875 0.34375 C 20.171875 0.34375 14.957031 -1.492188 11.15625 -5.171875 C 7.351562 -8.859375 5.453125 -13.898438 5.453125 -20.296875 L 5.453125 -48.984375 L 13.71875 -48.984375 L 13.71875 -20.296875 C 13.71875 -16.191406 14.894531 -12.957031 17.25 -10.59375 C 19.601562 -8.238281 22.8125 -7.0625 26.875 -7.0625 C 30.882812 -7.0625 34.039062 -8.226562 36.34375 -10.5625 C 38.65625 -12.894531 39.8125 -16.140625 39.8125 -20.296875 L 39.8125 -48.984375 Z M 48.0625 -48.984375 "/></g></g></g><g fill="#000000" fill-opacity="1"><g transform="translate(602.703298, 415.420501)"><g><path d="M 22.53125 -49.328125 C 28.875 -49.328125 34.585938 -47.648438 39.671875 -44.296875 L 36.25 -37.015625 C 31.25 -40.046875 26.46875 -41.5625 21.90625 -41.5625 C 19.425781 -41.5625 17.472656 -41.117188 16.046875 -40.234375 C 14.628906 -39.347656 13.921875 -38.085938 13.921875 -36.453125 C 13.921875 -34.816406 14.570312 -33.425781 15.875 -32.28125 C 17.1875 -31.144531 18.820312 -30.304688 20.78125 -29.765625 C 22.738281 -29.234375 24.859375 -28.554688 27.140625 -27.734375 C 29.429688 -26.921875 31.554688 -26.0625 33.515625 -25.15625 C 35.472656 -24.25 37.09375 -22.828125 38.375 -20.890625 C 39.65625 -18.953125 40.296875 -16.609375 40.296875 -13.859375 C 40.296875 -9.566406 38.582031 -6.132812 35.15625 -3.5625 C 31.726562 -1 27.285156 0.28125 21.828125 0.28125 C 18.097656 0.28125 14.484375 -0.414062 10.984375 -1.8125 C 7.484375 -3.21875 4.425781 -5.109375 1.8125 -7.484375 L 5.390625 -14.625 C 7.859375 -12.332031 10.570312 -10.566406 13.53125 -9.328125 C 16.5 -8.097656 19.3125 -7.484375 21.96875 -7.484375 C 24.863281 -7.484375 27.113281 -8.007812 28.71875 -9.0625 C 30.332031 -10.113281 31.140625 -11.570312 31.140625 -13.4375 C 31.140625 -15.113281 30.484375 -16.519531 29.171875 -17.65625 C 27.867188 -18.800781 26.238281 -19.640625 24.28125 -20.171875 C 22.320312 -20.710938 20.195312 -21.367188 17.90625 -22.140625 C 15.625 -22.910156 13.503906 -23.726562 11.546875 -24.59375 C 9.585938 -25.457031 7.953125 -26.84375 6.640625 -28.75 C 5.335938 -30.664062 4.6875 -32.976562 4.6875 -35.6875 C 4.6875 -39.832031 6.316406 -43.140625 9.578125 -45.609375 C 12.847656 -48.085938 17.164062 -49.328125 22.53125 -49.328125 Z M 22.53125 -49.328125 "/></g></g></g><g fill="#b38f4b" fill-opacity="0.4"><g transform="translate(256.51663, 446.034598)"><g><path d="M 6.96875 -12.1875 C 7.820312 -12.1875 8.65625 -12.019531 9.46875 -11.6875 C 10.289062 -11.363281 10.992188 -10.90625 11.578125 -10.3125 L 10.390625 -8.828125 C 9.953125 -9.304688 9.429688 -9.679688 8.828125 -9.953125 C 8.222656 -10.234375 7.613281 -10.375 7 -10.375 C 5.789062 -10.375 4.765625 -9.957031 3.921875 -9.125 C 3.085938 -8.300781 2.671875 -7.296875 2.671875 -6.109375 C 2.671875 -4.898438 3.085938 -3.882812 3.921875 -3.0625 C 4.765625 -2.238281 5.789062 -1.828125 7 -1.828125 C 8.257812 -1.828125 9.390625 -2.304688 10.390625 -3.265625 L 11.609375 -1.90625 C 10.984375 -1.289062 10.253906 -0.800781 9.421875 -0.4375 C 8.585938 -0.0820312 7.75 0.09375 6.90625 0.09375 C 5.125 0.09375 3.625 -0.5 2.40625 -1.6875 C 1.195312 -2.875 0.59375 -4.34375 0.59375 -6.09375 C 0.59375 -7.8125 1.207031 -9.253906 2.4375 -10.421875 C 3.664062 -11.597656 5.175781 -12.1875 6.96875 -12.1875 Z M 6.96875 -12.1875 "/></g></g></g><g fill="#b38f4b" fill-opacity="0.4"><g transform="translate(268.605184, 446.034598)"><g><path d="M 10.265625 -10.296875 L 3.640625 -10.296875 L 3.640625 -7.03125 L 9.578125 -7.03125 L 9.578125 -5.1875 L 3.640625 -5.1875 L 3.640625 -1.84375 L 10.46875 -1.84375 L 10.46875 0 L 1.59375 0 L 1.59375 -12.140625 L 10.265625 -12.140625 Z M 10.265625 -10.296875 "/></g></g></g><g fill="#b38f4b" fill-opacity="0.4"><g transform="translate(279.982648, 446.034598)"><g><path d="M 12.125 0 L 10.109375 0 L 3.640625 -8.703125 L 3.640625 0 L 1.59375 0 L 1.59375 -12.140625 L 3.609375 -12.140625 L 10.109375 -3.421875 L 10.109375 -12.140625 L 12.125 -12.140625 Z M 12.125 0 "/></g></g></g><g fill="#b38f4b" fill-opacity="0.4"><g transform="translate(293.718853, 446.034598)"><g><path d="M 9.890625 -10.296875 L 6.03125 -10.296875 L 6.03125 0 L 3.984375 0 L 3.984375 -10.296875 L 0.15625 -10.296875 L 0.15625 -12.140625 L 9.890625 -12.140625 Z M 9.890625 -10.296875 "/></g></g></g><g fill="#b38f4b" fill-opacity="0.4"><g transform="translate(303.76086, 446.034598)"><g><path d="M 9.296875 0 L 7.078125 -3.671875 C 6.960938 -3.660156 6.773438 -3.65625 6.515625 -3.65625 L 3.640625 -3.65625 L 3.640625 0 L 1.59375 0 L 1.59375 -12.140625 L 6.515625 -12.140625 C 8.066406 -12.140625 9.269531 -11.773438 10.125 -11.046875 C 10.976562 -10.328125 11.40625 -9.3125 11.40625 -8 C 11.40625 -7.019531 11.1875 -6.195312 10.75 -5.53125 C 10.320312 -4.863281 9.703125 -4.375 8.890625 -4.0625 L 11.625 0 Z M 3.640625 -5.5 L 6.515625 -5.5 C 8.484375 -5.5 9.46875 -6.3125 9.46875 -7.9375 C 9.46875 -9.507812 8.484375 -10.296875 6.515625 -10.296875 L 3.640625 -10.296875 Z M 3.640625 -5.5 "/></g></g></g><g fill="#b38f4b" fill-opacity="0.4"><g transform="translate(316.300357, 446.034598)"><g><path d="M 10.265625 -10.296875 L 3.640625 -10.296875 L 3.640625 -7.03125 L 9.578125 -7.03125 L 9.578125 -5.1875 L 3.640625 -5.1875 L 3.640625 -1.84375 L 10.46875 -1.84375 L 10.46875 0 L 1.59375 0 L 1.59375 -12.140625 L 10.265625 -12.140625 Z M 10.265625 -10.296875 "/></g></g></g><g fill="#b38f4b" fill-opacity="0.4"><g transform="translate(327.67782, 446.034598)"><g/></g></g><g fill="#b38f4b" fill-opacity="0.4"><g transform="translate(332.152494, 446.034598)"><g><path d="M 1.59375 -12.140625 L 6.578125 -12.140625 C 8.390625 -12.140625 9.890625 -11.566406 11.078125 -10.421875 C 12.265625 -9.273438 12.859375 -7.820312 12.859375 -6.0625 C 12.859375 -4.3125 12.257812 -2.863281 11.0625 -1.71875 C 9.875 -0.570312 8.359375 0 6.515625 0 L 1.59375 0 Z M 3.640625 -10.296875 L 3.640625 -1.84375 L 6.625 -1.84375 C 7.8125 -1.84375 8.800781 -2.238281 9.59375 -3.03125 C 10.382812 -3.820312 10.78125 -4.828125 10.78125 -6.046875 C 10.78125 -7.273438 10.375 -8.289062 9.5625 -9.09375 C 8.75 -9.894531 7.738281 -10.296875 6.53125 -10.296875 Z M 3.640625 -10.296875 "/></g></g></g><g fill="#b38f4b" fill-opacity="0.4"><g transform="translate(345.593865, 446.034598)"><g><path d="M 10.265625 -10.296875 L 3.640625 -10.296875 L 3.640625 -7.03125 L 9.578125 -7.03125 L 9.578125 -5.1875 L 3.640625 -5.1875 L 3.640625 -1.84375 L 10.46875 -1.84375 L 10.46875 0 L 1.59375 0 L 1.59375 -12.140625 L 10.265625 -12.140625 Z M 10.265625 -10.296875 "/></g></g></g><g fill="#b38f4b" fill-opacity="0.4"><g transform="translate(356.971329, 446.034598)"><g/></g></g><g fill="#b38f4b" fill-opacity="0.4"><g transform="translate(361.446003, 446.034598)"><g><path d="M 1.59375 -12.140625 L 6.578125 -12.140625 C 8.390625 -12.140625 9.890625 -11.566406 11.078125 -10.421875 C 12.265625 -9.273438 12.859375 -7.820312 12.859375 -6.0625 C 12.859375 -4.3125 12.257812 -2.863281 11.0625 -1.71875 C 9.875 -0.570312 8.359375 0 6.515625 0 L 1.59375 0 Z M 3.640625 -10.296875 L 3.640625 -1.84375 L 6.625 -1.84375 C 7.8125 -1.84375 8.800781 -2.238281 9.59375 -3.03125 C 10.382812 -3.820312 10.78125 -4.828125 10.78125 -6.046875 C 10.78125 -7.273438 10.375 -8.289062 9.5625 -9.09375 C 8.75 -9.894531 7.738281 -10.296875 6.53125 -10.296875 Z M 3.640625 -10.296875 "/></g></g></g><g fill="#b38f4b" fill-opacity="0.4"><g transform="translate(374.887374, 446.034598)"><g><path d="M 3.640625 0 L 1.59375 0 L 1.59375 -12.140625 L 3.640625 -12.140625 Z M 3.640625 0 "/></g></g></g><g fill="#b38f4b" fill-opacity="0.4"><g transform="translate(380.125175, 446.034598)"><g><path d="M 9.4375 -2.734375 L 3.3125 -2.734375 L 2.15625 0 L 0.015625 0 L 5.375 -12.140625 L 7.46875 -12.140625 L 12.78125 0 L 10.59375 0 Z M 8.65625 -4.5625 L 6.359375 -9.953125 L 4.078125 -4.5625 Z M 8.65625 -4.5625 "/></g></g></g><g fill="#b38f4b" fill-opacity="0.4"><g transform="translate(392.92483, 446.034598)"><g><path d="M 9.90625 -5.96875 L 11.6875 -5.96875 L 11.6875 -1.484375 C 11.0625 -1.015625 10.320312 -0.632812 9.46875 -0.34375 C 8.625 -0.0507812 7.789062 0.09375 6.96875 0.09375 C 5.175781 0.09375 3.664062 -0.5 2.4375 -1.6875 C 1.207031 -2.875 0.59375 -4.332031 0.59375 -6.0625 C 0.59375 -7.800781 1.21875 -9.253906 2.46875 -10.421875 C 3.71875 -11.597656 5.257812 -12.1875 7.09375 -12.1875 C 7.945312 -12.1875 8.785156 -12.035156 9.609375 -11.734375 C 10.441406 -11.429688 11.160156 -11.019531 11.765625 -10.5 L 10.59375 -8.984375 C 9.601562 -9.910156 8.4375 -10.375 7.09375 -10.375 C 5.851562 -10.375 4.804688 -9.957031 3.953125 -9.125 C 3.097656 -8.289062 2.671875 -7.273438 2.671875 -6.078125 C 2.671875 -4.859375 3.097656 -3.832031 3.953125 -3 C 4.816406 -2.164062 5.867188 -1.75 7.109375 -1.75 C 8.046875 -1.75 8.976562 -2.023438 9.90625 -2.578125 Z M 9.90625 -5.96875 "/></g></g></g><g fill="#b38f4b" fill-opacity="0.4"><g transform="translate(405.915258, 446.034598)"><g><path d="M 12.125 0 L 10.109375 0 L 3.640625 -8.703125 L 3.640625 0 L 1.59375 0 L 1.59375 -12.140625 L 3.609375 -12.140625 L 10.109375 -3.421875 L 10.109375 -12.140625 L 12.125 -12.140625 Z M 12.125 0 "/></g></g></g><g fill="#b38f4b" fill-opacity="0.4"><g transform="translate(419.651463, 446.034598)"><g><path d="M 2.4375 -10.421875 C 3.675781 -11.597656 5.203125 -12.1875 7.015625 -12.1875 C 8.835938 -12.1875 10.363281 -11.597656 11.59375 -10.421875 C 12.832031 -9.253906 13.453125 -7.800781 13.453125 -6.0625 C 13.453125 -4.332031 12.832031 -2.875 11.59375 -1.6875 C 10.363281 -0.5 8.835938 0.09375 7.015625 0.09375 C 5.203125 0.09375 3.675781 -0.5 2.4375 -1.6875 C 1.207031 -2.875 0.59375 -4.332031 0.59375 -6.0625 C 0.59375 -7.800781 1.207031 -9.253906 2.4375 -10.421875 Z M 7.046875 -10.359375 C 5.835938 -10.359375 4.804688 -9.941406 3.953125 -9.109375 C 3.097656 -8.285156 2.671875 -7.269531 2.671875 -6.0625 C 2.671875 -4.863281 3.097656 -3.84375 3.953125 -3 C 4.816406 -2.164062 5.84375 -1.75 7.03125 -1.75 C 8.226562 -1.75 9.25 -2.164062 10.09375 -3 C 10.9375 -3.84375 11.359375 -4.863281 11.359375 -6.0625 C 11.359375 -7.269531 10.9375 -8.285156 10.09375 -9.109375 C 9.25 -9.941406 8.234375 -10.359375 7.046875 -10.359375 Z M 7.046875 -10.359375 "/></g></g></g><g fill="#b38f4b" fill-opacity="0.4"><g transform="translate(433.699863, 446.034598)"><g><path d="M 5.578125 -12.234375 C 7.148438 -12.234375 8.566406 -11.816406 9.828125 -10.984375 L 8.984375 -9.171875 C 7.742188 -9.921875 6.554688 -10.296875 5.421875 -10.296875 C 4.816406 -10.296875 4.335938 -10.1875 3.984375 -9.96875 C 3.628906 -9.75 3.453125 -9.4375 3.453125 -9.03125 C 3.453125 -8.625 3.613281 -8.28125 3.9375 -8 C 4.257812 -7.71875 4.660156 -7.507812 5.140625 -7.375 C 5.628906 -7.25 6.15625 -7.082031 6.71875 -6.875 C 7.289062 -6.675781 7.816406 -6.460938 8.296875 -6.234375 C 8.785156 -6.003906 9.1875 -5.648438 9.5 -5.171875 C 9.820312 -4.691406 9.984375 -4.113281 9.984375 -3.4375 C 9.984375 -2.375 9.554688 -1.523438 8.703125 -0.890625 C 7.859375 -0.253906 6.757812 0.0625 5.40625 0.0625 C 4.488281 0.0625 3.59375 -0.109375 2.71875 -0.453125 C 1.851562 -0.796875 1.097656 -1.265625 0.453125 -1.859375 L 1.328125 -3.625 C 1.941406 -3.0625 2.613281 -2.625 3.34375 -2.3125 C 4.082031 -2.007812 4.785156 -1.859375 5.453125 -1.859375 C 6.160156 -1.859375 6.710938 -1.988281 7.109375 -2.25 C 7.515625 -2.507812 7.71875 -2.867188 7.71875 -3.328125 C 7.71875 -3.742188 7.554688 -4.09375 7.234375 -4.375 C 6.910156 -4.65625 6.503906 -4.863281 6.015625 -5 C 5.535156 -5.132812 5.007812 -5.296875 4.4375 -5.484375 C 3.875 -5.679688 3.347656 -5.882812 2.859375 -6.09375 C 2.378906 -6.3125 1.972656 -6.65625 1.640625 -7.125 C 1.316406 -7.601562 1.15625 -8.175781 1.15625 -8.84375 C 1.15625 -9.875 1.5625 -10.695312 2.375 -11.3125 C 3.1875 -11.925781 4.253906 -12.234375 5.578125 -12.234375 Z M 5.578125 -12.234375 "/></g></g></g><g fill="#b38f4b" fill-opacity="0.4"><g transform="translate(444.487647, 446.034598)"><g><path d="M 9.890625 -10.296875 L 6.03125 -10.296875 L 6.03125 0 L 3.984375 0 L 3.984375 -10.296875 L 0.15625 -10.296875 L 0.15625 -12.140625 L 9.890625 -12.140625 Z M 9.890625 -10.296875 "/></g></g></g><g fill="#b38f4b" fill-opacity="0.4"><g transform="translate(454.529666, 446.034598)"><g><path d="M 3.640625 0 L 1.59375 0 L 1.59375 -12.140625 L 3.640625 -12.140625 Z M 3.640625 0 "/></g></g></g><g fill="#b38f4b" fill-opacity="0.4"><g transform="translate(459.767466, 446.034598)"><g><path d="M 13.359375 -0.109375 L 14.171875 1.328125 C 13.160156 2.222656 12.0625 2.671875 10.875 2.671875 C 10.125 2.671875 9.410156 2.441406 8.734375 1.984375 C 8.066406 1.535156 7.488281 0.90625 7 0.09375 C 5.1875 0.0703125 3.664062 -0.523438 2.4375 -1.703125 C 1.207031 -2.878906 0.59375 -4.332031 0.59375 -6.0625 C 0.59375 -7.800781 1.207031 -9.253906 2.4375 -10.421875 C 3.675781 -11.597656 5.203125 -12.1875 7.015625 -12.1875 C 8.835938 -12.1875 10.363281 -11.597656 11.59375 -10.421875 C 12.832031 -9.253906 13.453125 -7.804688 13.453125 -6.078125 C 13.453125 -4.691406 13.050781 -3.46875 12.25 -2.40625 C 11.445312 -1.351562 10.394531 -0.625 9.09375 -0.21875 C 9.78125 0.53125 10.457031 0.90625 11.125 0.90625 C 11.757812 0.90625 12.503906 0.566406 13.359375 -0.109375 Z M 3.953125 -9.109375 C 3.097656 -8.285156 2.671875 -7.269531 2.671875 -6.0625 C 2.671875 -4.863281 3.097656 -3.84375 3.953125 -3 C 4.816406 -2.164062 5.84375 -1.75 7.03125 -1.75 C 8.226562 -1.75 9.25 -2.164062 10.09375 -3 C 10.9375 -3.84375 11.359375 -4.863281 11.359375 -6.0625 C 11.359375 -7.269531 10.9375 -8.285156 10.09375 -9.109375 C 9.25 -9.941406 8.234375 -10.359375 7.046875 -10.359375 C 5.835938 -10.359375 4.804688 -9.941406 3.953125 -9.109375 Z M 3.953125 -9.109375 "/></g></g></g><g fill="#b38f4b" fill-opacity="0.4"><g transform="translate(474.076013, 446.034598)"><g><path d="M 11.921875 -12.140625 L 11.921875 -5.03125 C 11.921875 -3.445312 11.453125 -2.195312 10.515625 -1.28125 C 9.578125 -0.363281 8.285156 0.09375 6.640625 0.09375 C 5.003906 0.09375 3.710938 -0.363281 2.765625 -1.28125 C 1.828125 -2.195312 1.359375 -3.445312 1.359375 -5.03125 L 1.359375 -12.140625 L 3.40625 -12.140625 L 3.40625 -5.03125 C 3.40625 -4.007812 3.695312 -3.207031 4.28125 -2.625 C 4.863281 -2.039062 5.65625 -1.75 6.65625 -1.75 C 7.65625 -1.75 8.441406 -2.035156 9.015625 -2.609375 C 9.585938 -3.191406 9.875 -4 9.875 -5.03125 L 9.875 -12.140625 Z M 11.921875 -12.140625 "/></g></g></g><g fill="#b38f4b" fill-opacity="0.4"><g transform="translate(487.3266, 446.034598)"><g><path d="M 10.265625 -10.296875 L 3.640625 -10.296875 L 3.640625 -7.03125 L 9.578125 -7.03125 L 9.578125 -5.1875 L 3.640625 -5.1875 L 3.640625 -1.84375 L 10.46875 -1.84375 L 10.46875 0 L 1.59375 0 L 1.59375 -12.140625 L 10.265625 -12.140625 Z M 10.265625 -10.296875 "/></g></g></g><g fill="#b38f4b" fill-opacity="0.4"><g transform="translate(498.704064, 446.034598)"><g/></g></g><g fill="#b38f4b" fill-opacity="0.4"><g transform="translate(503.178726, 446.034598)"><g><path d="M 10.265625 -10.296875 L 3.640625 -10.296875 L 3.640625 -7.03125 L 9.578125 -7.03125 L 9.578125 -5.1875 L 3.640625 -5.1875 L 3.640625 -1.84375 L 10.46875 -1.84375 L 10.46875 0 L 1.59375 0 L 1.59375 -12.140625 L 10.265625 -12.140625 Z M 10.265625 -10.296875 "/></g></g></g><g fill="#b38f4b" fill-opacity="0.4"><g transform="translate(514.55619, 446.034598)"><g><path d="M 9.890625 -10.296875 L 6.03125 -10.296875 L 6.03125 0 L 3.984375 0 L 3.984375 -10.296875 L 0.15625 -10.296875 L 0.15625 -12.140625 L 9.890625 -12.140625 Z M 9.890625 -10.296875 "/></g></g></g><g fill="#b38f4b" fill-opacity="0.4"><g transform="translate(524.598197, 446.034598)"><g/></g></g><g fill="#b38f4b" fill-opacity="0.4"><g transform="translate(529.07286, 446.034598)"><g><path d="M 9.890625 -10.296875 L 6.03125 -10.296875 L 6.03125 0 L 3.984375 0 L 3.984375 -10.296875 L 0.15625 -10.296875 L 0.15625 -12.140625 L 9.890625 -12.140625 Z M 9.890625 -10.296875 "/></g></g></g><g fill="#b38f4b" fill-opacity="0.4"><g transform="translate(539.114867, 446.034598)"><g><path d="M 9.296875 0 L 7.078125 -3.671875 C 6.960938 -3.660156 6.773438 -3.65625 6.515625 -3.65625 L 3.640625 -3.65625 L 3.640625 0 L 1.59375 0 L 1.59375 -12.140625 L 6.515625 -12.140625 C 8.066406 -12.140625 9.269531 -11.773438 10.125 -11.046875 C 10.976562 -10.328125 11.40625 -9.3125 11.40625 -8 C 11.40625 -7.019531 11.1875 -6.195312 10.75 -5.53125 C 10.320312 -4.863281 9.703125 -4.375 8.890625 -4.0625 L 11.625 0 Z M 3.640625 -5.5 L 6.515625 -5.5 C 8.484375 -5.5 9.46875 -6.3125 9.46875 -7.9375 C 9.46875 -9.507812 8.484375 -10.296875 6.515625 -10.296875 L 3.640625 -10.296875 Z M 3.640625 -5.5 "/></g></g></g><g fill="#b38f4b" fill-opacity="0.4"><g transform="translate(551.654363, 446.034598)"><g><path d="M 9.4375 -2.734375 L 3.3125 -2.734375 L 2.15625 0 L 0.015625 0 L 5.375 -12.140625 L 7.46875 -12.140625 L 12.78125 0 L 10.59375 0 Z M 8.65625 -4.5625 L 6.359375 -9.953125 L 4.078125 -4.5625 Z M 8.65625 -4.5625 "/></g></g></g><g fill="#b38f4b" fill-opacity="0.4"><g transform="translate(564.454007, 446.034598)"><g><path d="M 3.640625 0 L 1.59375 0 L 1.59375 -12.140625 L 3.640625 -12.140625 Z M 3.640625 0 "/></g></g></g><g fill="#b38f4b" fill-opacity="0.4"><g transform="translate(569.691808, 446.034598)"><g><path d="M 9.890625 -10.296875 L 6.03125 -10.296875 L 6.03125 0 L 3.984375 0 L 3.984375 -10.296875 L 0.15625 -10.296875 L 0.15625 -12.140625 L 9.890625 -12.140625 Z M 9.890625 -10.296875 "/></g></g></g><g fill="#b38f4b" fill-opacity="0.4"><g transform="translate(579.733815, 446.034598)"><g><path d="M 10.265625 -10.296875 L 3.640625 -10.296875 L 3.640625 -7.03125 L 9.578125 -7.03125 L 9.578125 -5.1875 L 3.640625 -5.1875 L 3.640625 -1.84375 L 10.46875 -1.84375 L 10.46875 0 L 1.59375 0 L 1.59375 -12.140625 L 10.265625 -12.140625 Z M 10.265625 -10.296875 "/></g></g></g><g fill="#b38f4b" fill-opacity="0.4"><g transform="translate(591.111278, 446.034598)"><g><path d="M 14.4375 0 L 12.546875 0 L 12.515625 -9.078125 L 8.6875 -1.265625 L 7.359375 -1.265625 L 3.515625 -9.078125 L 3.515625 0 L 1.59375 0 L 1.59375 -12.140625 L 4.03125 -12.140625 L 8.03125 -4.078125 L 12.015625 -12.140625 L 14.4375 -12.140625 Z M 14.4375 0 "/></g></g></g><g fill="#b38f4b" fill-opacity="0.4"><g transform="translate(607.154201, 446.034598)"><g><path d="M 10.265625 -10.296875 L 3.640625 -10.296875 L 3.640625 -7.03125 L 9.578125 -7.03125 L 9.578125 -5.1875 L 3.640625 -5.1875 L 3.640625 -1.84375 L 10.46875 -1.84375 L 10.46875 0 L 1.59375 0 L 1.59375 -12.140625 L 10.265625 -12.140625 Z M 10.265625 -10.296875 "/></g></g></g><g fill="#b38f4b" fill-opacity="0.4"><g transform="translate(618.531664, 446.034598)"><g><path d="M 12.125 0 L 10.109375 0 L 3.640625 -8.703125 L 3.640625 0 L 1.59375 0 L 1.59375 -12.140625 L 3.609375 -12.140625 L 10.109375 -3.421875 L 10.109375 -12.140625 L 12.125 -12.140625 Z M 12.125 0 "/></g></g></g><g fill="#b38f4b" fill-opacity="0.4"><g transform="translate(632.267869, 446.034598)"><g><path d="M 9.890625 -10.296875 L 6.03125 -10.296875 L 6.03125 0 L 3.984375 0 L 3.984375 -10.296875 L 0.15625 -10.296875 L 0.15625 -12.140625 L 9.890625 -12.140625 Z M 9.890625 -10.296875 "/></g></g></g><g fill="#000000" fill-opacity="1"><g transform="translate(256.51663, 446.034598)"><g><path d="M 6.96875 -12.1875 C 7.820312 -12.1875 8.65625 -12.019531 9.46875 -11.6875 C 10.289062 -11.363281 10.992188 -10.90625 11.578125 -10.3125 L 10.390625 -8.828125 C 9.953125 -9.304688 9.429688 -9.679688 8.828125 -9.953125 C 8.222656 -10.234375 7.613281 -10.375 7 -10.375 C 5.789062 -10.375 4.765625 -9.957031 3.921875 -9.125 C 3.085938 -8.300781 2.671875 -7.296875 2.671875 -6.109375 C 2.671875 -4.898438 3.085938 -3.882812 3.921875 -3.0625 C 4.765625 -2.238281 5.789062 -1.828125 7 -1.828125 C 8.257812 -1.828125 9.390625 -2.304688 10.390625 -3.265625 L 11.609375 -1.90625 C 10.984375 -1.289062 10.253906 -0.800781 9.421875 -0.4375 C 8.585938 -0.0820312 7.75 0.09375 6.90625 0.09375 C 5.125 0.09375 3.625 -0.5 2.40625 -1.6875 C 1.195312 -2.875 0.59375 -4.34375 0.59375 -6.09375 C 0.59375 -7.8125 1.207031 -9.253906 2.4375 -10.421875 C 3.664062 -11.597656 5.175781 -12.1875 6.96875 -12.1875 Z M 6.96875 -12.1875 "/></g></g></g><g fill="#000000" fill-opacity="1"><g transform="translate(268.605184, 446.034598)"><g><path d="M 10.265625 -10.296875 L 3.640625 -10.296875 L 3.640625 -7.03125 L 9.578125 -7.03125 L 9.578125 -5.1875 L 3.640625 -5.1875 L 3.640625 -1.84375 L 10.46875 -1.84375 L 10.46875 0 L 1.59375 0 L 1.59375 -12.140625 L 10.265625 -12.140625 Z M 10.265625 -10.296875 "/></g></g></g><g fill="#000000" fill-opacity="1"><g transform="translate(279.982648, 446.034598)"><g><path d="M 12.125 0 L 10.109375 0 L 3.640625 -8.703125 L 3.640625 0 L 1.59375 0 L 1.59375 -12.140625 L 3.609375 -12.140625 L 10.109375 -3.421875 L 10.109375 -12.140625 L 12.125 -12.140625 Z M 12.125 0 "/></g></g></g><g fill="#000000" fill-opacity="1"><g transform="translate(293.718853, 446.034598)"><g><path d="M 9.890625 -10.296875 L 6.03125 -10.296875 L 6.03125 0 L 3.984375 0 L 3.984375 -10.296875 L 0.15625 -10.296875 L 0.15625 -12.140625 L 9.890625 -12.140625 Z M 9.890625 -10.296875 "/></g></g></g><g fill="#000000" fill-opacity="1"><g transform="translate(303.76086, 446.034598)"><g><path d="M 9.296875 0 L 7.078125 -3.671875 C 6.960938 -3.660156 6.773438 -3.65625 6.515625 -3.65625 L 3.640625 -3.65625 L 3.640625 0 L 1.59375 0 L 1.59375 -12.140625 L 6.515625 -12.140625 C 8.066406 -12.140625 9.269531 -11.773438 10.125 -11.046875 C 10.976562 -10.328125 11.40625 -9.3125 11.40625 -8 C 11.40625 -7.019531 11.1875 -6.195312 10.75 -5.53125 C 10.320312 -4.863281 9.703125 -4.375 8.890625 -4.0625 L 11.625 0 Z M 3.640625 -5.5 L 6.515625 -5.5 C 8.484375 -5.5 9.46875 -6.3125 9.46875 -7.9375 C 9.46875 -9.507812 8.484375 -10.296875 6.515625 -10.296875 L 3.640625 -10.296875 Z M 3.640625 -5.5 "/></g></g></g><g fill="#000000" fill-opacity="1"><g transform="translate(316.300357, 446.034598)"><g><path d="M 10.265625 -10.296875 L 3.640625 -10.296875 L 3.640625 -7.03125 L 9.578125 -7.03125 L 9.578125 -5.1875 L 3.640625 -5.1875 L 3.640625 -1.84375 L 10.46875 -1.84375 L 10.46875 0 L 1.59375 0 L 1.59375 -12.140625 L 10.265625 -12.140625 Z M 10.265625 -10.296875 "/></g></g></g><g fill="#000000" fill-opacity="1"><g transform="translate(327.67782, 446.034598)"><g/></g></g><g fill="#000000" fill-opacity="1"><g transform="translate(332.152494, 446.034598)"><g><path d="M 1.59375 -12.140625 L 6.578125 -12.140625 C 8.390625 -12.140625 9.890625 -11.566406 11.078125 -10.421875 C 12.265625 -9.273438 12.859375 -7.820312 12.859375 -6.0625 C 12.859375 -4.3125 12.257812 -2.863281 11.0625 -1.71875 C 9.875 -0.570312 8.359375 0 6.515625 0 L 1.59375 0 Z M 3.640625 -10.296875 L 3.640625 -1.84375 L 6.625 -1.84375 C 7.8125 -1.84375 8.800781 -2.238281 9.59375 -3.03125 C 10.382812 -3.820312 10.78125 -4.828125 10.78125 -6.046875 C 10.78125 -7.273438 10.375 -8.289062 9.5625 -9.09375 C 8.75 -9.894531 7.738281 -10.296875 6.53125 -10.296875 Z M 3.640625 -10.296875 "/></g></g></g><g fill="#000000" fill-opacity="1"><g transform="translate(345.593865, 446.034598)"><g><path d="M 10.265625 -10.296875 L 3.640625 -10.296875 L 3.640625 -7.03125 L 9.578125 -7.03125 L 9.578125 -5.1875 L 3.640625 -5.1875 L 3.640625 -1.84375 L 10.46875 -1.84375 L 10.46875 0 L 1.59375 0 L 1.59375 -12.140625 L 10.265625 -12.140625 Z M 10.265625 -10.296875 "/></g></g></g><g fill="#000000" fill-opacity="1"><g transform="translate(356.971329, 446.034598)"><g/></g></g><g fill="#000000" fill-opacity="1"><g transform="translate(361.446003, 446.034598)"><g><path d="M 1.59375 -12.140625 L 6.578125 -12.140625 C 8.390625 -12.140625 9.890625 -11.566406 11.078125 -10.421875 C 12.265625 -9.273438 12.859375 -7.820312 12.859375 -6.0625 C 12.859375 -4.3125 12.257812 -2.863281 11.0625 -1.71875 C 9.875 -0.570312 8.359375 0 6.515625 0 L 1.59375 0 Z M 3.640625 -10.296875 L 3.640625 -1.84375 L 6.625 -1.84375 C 7.8125 -1.84375 8.800781 -2.238281 9.59375 -3.03125 C 10.382812 -3.820312 10.78125 -4.828125 10.78125 -6.046875 C 10.78125 -7.273438 10.375 -8.289062 9.5625 -9.09375 C 8.75 -9.894531 7.738281 -10.296875 6.53125 -10.296875 Z M 3.640625 -10.296875 "/></g></g></g><g fill="#000000" fill-opacity="1"><g transform="translate(374.887374, 446.034598)"><g><path d="M 3.640625 0 L 1.59375 0 L 1.59375 -12.140625 L 3.640625 -12.140625 Z M 3.640625 0 "/></g></g></g><g fill="#000000" fill-opacity="1"><g transform="translate(380.125175, 446.034598)"><g><path d="M 9.4375 -2.734375 L 3.3125 -2.734375 L 2.15625 0 L 0.015625 0 L 5.375 -12.140625 L 7.46875 -12.140625 L 12.78125 0 L 10.59375 0 Z M 8.65625 -4.5625 L 6.359375 -9.953125 L 4.078125 -4.5625 Z M 8.65625 -4.5625 "/></g></g></g><g fill="#000000" fill-opacity="1"><g transform="translate(392.92483, 446.034598)"><g><path d="M 9.90625 -5.96875 L 11.6875 -5.96875 L 11.6875 -1.484375 C 11.0625 -1.015625 10.320312 -0.632812 9.46875 -0.34375 C 8.625 -0.0507812 7.789062 0.09375 6.96875 0.09375 C 5.175781 0.09375 3.664062 -0.5 2.4375 -1.6875 C 1.207031 -2.875 0.59375 -4.332031 0.59375 -6.0625 C 0.59375 -7.800781 1.21875 -9.253906 2.46875 -10.421875 C 3.71875 -11.597656 5.257812 -12.1875 7.09375 -12.1875 C 7.945312 -12.1875 8.785156 -12.035156 9.609375 -11.734375 C 10.441406 -11.429688 11.160156 -11.019531 11.765625 -10.5 L 10.59375 -8.984375 C 9.601562 -9.910156 8.4375 -10.375 7.09375 -10.375 C 5.851562 -10.375 4.804688 -9.957031 3.953125 -9.125 C 3.097656 -8.289062 2.671875 -7.273438 2.671875 -6.078125 C 2.671875 -4.859375 3.097656 -3.832031 3.953125 -3 C 4.816406 -2.164062 5.867188 -1.75 7.109375 -1.75 C 8.046875 -1.75 8.976562 -2.023438 9.90625 -2.578125 Z M 9.90625 -5.96875 "/></g></g></g><g fill="#000000" fill-opacity="1"><g transform="translate(405.915258, 446.034598)"><g><path d="M 12.125 0 L 10.109375 0 L 3.640625 -8.703125 L 3.640625 0 L 1.59375 0 L 1.59375 -12.140625 L 3.609375 -12.140625 L 10.109375 -3.421875 L 10.109375 -12.140625 L 12.125 -12.140625 Z M 12.125 0 "/></g></g></g><g fill="#000000" fill-opacity="1"><g transform="translate(419.651463, 446.034598)"><g><path d="M 2.4375 -10.421875 C 3.675781 -11.597656 5.203125 -12.1875 7.015625 -12.1875 C 8.835938 -12.1875 10.363281 -11.597656 11.59375 -10.421875 C 12.832031 -9.253906 13.453125 -7.800781 13.453125 -6.0625 C 13.453125 -4.332031 12.832031 -2.875 11.59375 -1.6875 C 10.363281 -0.5 8.835938 0.09375 7.015625 0.09375 C 5.203125 0.09375 3.675781 -0.5 2.4375 -1.6875 C 1.207031 -2.875 0.59375 -4.332031 0.59375 -6.0625 C 0.59375 -7.800781 1.207031 -9.253906 2.4375 -10.421875 Z M 7.046875 -10.359375 C 5.835938 -10.359375 4.804688 -9.941406 3.953125 -9.109375 C 3.097656 -8.285156 2.671875 -7.269531 2.671875 -6.0625 C 2.671875 -4.863281 3.097656 -3.84375 3.953125 -3 C 4.816406 -2.164062 5.84375 -1.75 7.03125 -1.75 C 8.226562 -1.75 9.25 -2.164062 10.09375 -3 C 10.9375 -3.84375 11.359375 -4.863281 11.359375 -6.0625 C 11.359375 -7.269531 10.9375 -8.285156 10.09375 -9.109375 C 9.25 -9.941406 8.234375 -10.359375 7.046875 -10.359375 Z M 7.046875 -10.359375 "/></g></g></g><g fill="#000000" fill-opacity="1"><g transform="translate(433.699863, 446.034598)"><g><path d="M 5.578125 -12.234375 C 7.148438 -12.234375 8.566406 -11.816406 9.828125 -10.984375 L 8.984375 -9.171875 C 7.742188 -9.921875 6.554688 -10.296875 5.421875 -10.296875 C 4.816406 -10.296875 4.335938 -10.1875 3.984375 -9.96875 C 3.628906 -9.75 3.453125 -9.4375 3.453125 -9.03125 C 3.453125 -8.625 3.613281 -8.28125 3.9375 -8 C 4.257812 -7.71875 4.660156 -7.507812 5.140625 -7.375 C 5.628906 -7.25 6.15625 -7.082031 6.71875 -6.875 C 7.289062 -6.675781 7.816406 -6.460938 8.296875 -6.234375 C 8.785156 -6.003906 9.1875 -5.648438 9.5 -5.171875 C 9.820312 -4.691406 9.984375 -4.113281 9.984375 -3.4375 C 9.984375 -2.375 9.554688 -1.523438 8.703125 -0.890625 C 7.859375 -0.253906 6.757812 0.0625 5.40625 0.0625 C 4.488281 0.0625 3.59375 -0.109375 2.71875 -0.453125 C 1.851562 -0.796875 1.097656 -1.265625 0.453125 -1.859375 L 1.328125 -3.625 C 1.941406 -3.0625 2.613281 -2.625 3.34375 -2.3125 C 4.082031 -2.007812 4.785156 -1.859375 5.453125 -1.859375 C 6.160156 -1.859375 6.710938 -1.988281 7.109375 -2.25 C 7.515625 -2.507812 7.71875 -2.867188 7.71875 -3.328125 C 7.71875 -3.742188 7.554688 -4.09375 7.234375 -4.375 C 6.910156 -4.65625 6.503906 -4.863281 6.015625 -5 C 5.535156 -5.132812 5.007812 -5.296875 4.4375 -5.484375 C 3.875 -5.679688 3.347656 -5.882812 2.859375 -6.09375 C 2.378906 -6.3125 1.972656 -6.65625 1.640625 -7.125 C 1.316406 -7.601562 1.15625 -8.175781 1.15625 -8.84375 C 1.15625 -9.875 1.5625 -10.695312 2.375 -11.3125 C 3.1875 -11.925781 4.253906 -12.234375 5.578125 -12.234375 Z M 5.578125 -12.234375 "/></g></g></g><g fill="#000000" fill-opacity="1"><g transform="translate(444.487647, 446.034598)"><g><path d="M 9.890625 -10.296875 L 6.03125 -10.296875 L 6.03125 0 L 3.984375 0 L 3.984375 -10.296875 L 0.15625 -10.296875 L 0.15625 -12.140625 L 9.890625 -12.140625 Z M 9.890625 -10.296875 "/></g></g></g><g fill="#000000" fill-opacity="1"><g transform="translate(454.529666, 446.034598)"><g><path d="M 3.640625 0 L 1.59375 0 L 1.59375 -12.140625 L 3.640625 -12.140625 Z M 3.640625 0 "/></g></g></g><g fill="#000000" fill-opacity="1"><g transform="translate(459.767466, 446.034598)"><g><path d="M 13.359375 -0.109375 L 14.171875 1.328125 C 13.160156 2.222656 12.0625 2.671875 10.875 2.671875 C 10.125 2.671875 9.410156 2.441406 8.734375 1.984375 C 8.066406 1.535156 7.488281 0.90625 7 0.09375 C 5.1875 0.0703125 3.664062 -0.523438 2.4375 -1.703125 C 1.207031 -2.878906 0.59375 -4.332031 0.59375 -6.0625 C 0.59375 -7.800781 1.207031 -9.253906 2.4375 -10.421875 C 3.675781 -11.597656 5.203125 -12.1875 7.015625 -12.1875 C 8.835938 -12.1875 10.363281 -11.597656 11.59375 -10.421875 C 12.832031 -9.253906 13.453125 -7.804688 13.453125 -6.078125 C 13.453125 -4.691406 13.050781 -3.46875 12.25 -2.40625 C 11.445312 -1.351562 10.394531 -0.625 9.09375 -0.21875 C 9.78125 0.53125 10.457031 0.90625 11.125 0.90625 C 11.757812 0.90625 12.503906 0.566406 13.359375 -0.109375 Z M 3.953125 -9.109375 C 3.097656 -8.285156 2.671875 -7.269531 2.671875 -6.0625 C 2.671875 -4.863281 3.097656 -3.84375 3.953125 -3 C 4.816406 -2.164062 5.84375 -1.75 7.03125 -1.75 C 8.226562 -1.75 9.25 -2.164062 10.09375 -3 C 10.9375 -3.84375 11.359375 -4.863281 11.359375 -6.0625 C 11.359375 -7.269531 10.9375 -8.285156 10.09375 -9.109375 C 9.25 -9.941406 8.234375 -10.359375 7.046875 -10.359375 C 5.835938 -10.359375 4.804688 -9.941406 3.953125 -9.109375 Z M 3.953125 -9.109375 "/></g></g></g><g fill="#000000" fill-opacity="1"><g transform="translate(474.076013, 446.034598)"><g><path d="M 11.921875 -12.140625 L 11.921875 -5.03125 C 11.921875 -3.445312 11.453125 -2.195312 10.515625 -1.28125 C 9.578125 -0.363281 8.285156 0.09375 6.640625 0.09375 C 5.003906 0.09375 3.710938 -0.363281 2.765625 -1.28125 C 1.828125 -2.195312 1.359375 -3.445312 1.359375 -5.03125 L 1.359375 -12.140625 L 3.40625 -12.140625 L 3.40625 -5.03125 C 3.40625 -4.007812 3.695312 -3.207031 4.28125 -2.625 C 4.863281 -2.039062 5.65625 -1.75 6.65625 -1.75 C 7.65625 -1.75 8.441406 -2.035156 9.015625 -2.609375 C 9.585938 -3.191406 9.875 -4 9.875 -5.03125 L 9.875 -12.140625 Z M 11.921875 -12.140625 "/></g></g></g><g fill="#000000" fill-opacity="1"><g transform="translate(487.3266, 446.034598)"><g><path d="M 10.265625 -10.296875 L 3.640625 -10.296875 L 3.640625 -7.03125 L 9.578125 -7.03125 L 9.578125 -5.1875 L 3.640625 -5.1875 L 3.640625 -1.84375 L 10.46875 -1.84375 L 10.46875 0 L 1.59375 0 L 1.59375 -12.140625 L 10.265625 -12.140625 Z M 10.265625 -10.296875 "/></g></g></g><g fill="#000000" fill-opacity="1"><g transform="translate(498.704064, 446.034598)"><g/></g></g><g fill="#000000" fill-opacity="1"><g transform="translate(503.178726, 446.034598)"><g><path d="M 10.265625 -10.296875 L 3.640625 -10.296875 L 3.640625 -7.03125 L 9.578125 -7.03125 L 9.578125 -5.1875 L 3.640625 -5.1875 L 3.640625 -1.84375 L 10.46875 -1.84375 L 10.46875 0 L 1.59375 0 L 1.59375 -12.140625 L 10.265625 -12.140625 Z M 10.265625 -10.296875 "/></g></g></g><g fill="#000000" fill-opacity="1"><g transform="translate(514.55619, 446.034598)"><g><path d="M 9.890625 -10.296875 L 6.03125 -10.296875 L 6.03125 0 L 3.984375 0 L 3.984375 -10.296875 L 0.15625 -10.296875 L 0.15625 -12.140625 L 9.890625 -12.140625 Z M 9.890625 -10.296875 "/></g></g></g><g fill="#000000" fill-opacity="1"><g transform="translate(524.598197, 446.034598)"><g/></g></g><g fill="#000000" fill-opacity="1"><g transform="translate(529.07286, 446.034598)"><g><path d="M 9.890625 -10.296875 L 6.03125 -10.296875 L 6.03125 0 L 3.984375 0 L 3.984375 -10.296875 L 0.15625 -10.296875 L 0.15625 -12.140625 L 9.890625 -12.140625 Z M 9.890625 -10.296875 "/></g></g></g><g fill="#000000" fill-opacity="1"><g transform="translate(539.114867, 446.034598)"><g><path d="M 9.296875 0 L 7.078125 -3.671875 C 6.960938 -3.660156 6.773438 -3.65625 6.515625 -3.65625 L 3.640625 -3.65625 L 3.640625 0 L 1.59375 0 L 1.59375 -12.140625 L 6.515625 -12.140625 C 8.066406 -12.140625 9.269531 -11.773438 10.125 -11.046875 C 10.976562 -10.328125 11.40625 -9.3125 11.40625 -8 C 11.40625 -7.019531 11.1875 -6.195312 10.75 -5.53125 C 10.320312 -4.863281 9.703125 -4.375 8.890625 -4.0625 L 11.625 0 Z M 3.640625 -5.5 L 6.515625 -5.5 C 8.484375 -5.5 9.46875 -6.3125 9.46875 -7.9375 C 9.46875 -9.507812 8.484375 -10.296875 6.515625 -10.296875 L 3.640625 -10.296875 Z M 3.640625 -5.5 "/></g></g></g><g fill="#000000" fill-opacity="1"><g transform="translate(551.654363, 446.034598)"><g><path d="M 9.4375 -2.734375 L 3.3125 -2.734375 L 2.15625 0 L 0.015625 0 L 5.375 -12.140625 L 7.46875 -12.140625 L 12.78125 0 L 10.59375 0 Z M 8.65625 -4.5625 L 6.359375 -9.953125 L 4.078125 -4.5625 Z M 8.65625 -4.5625 "/></g></g></g><g fill="#000000" fill-opacity="1"><g transform="translate(564.454007, 446.034598)"><g><path d="M 3.640625 0 L 1.59375 0 L 1.59375 -12.140625 L 3.640625 -12.140625 Z M 3.640625 0 "/></g></g></g><g fill="#000000" fill-opacity="1"><g transform="translate(569.691808, 446.034598)"><g><path d="M 9.890625 -10.296875 L 6.03125 -10.296875 L 6.03125 0 L 3.984375 0 L 3.984375 -10.296875 L 0.15625 -10.296875 L 0.15625 -12.140625 L 9.890625 -12.140625 Z M 9.890625 -10.296875 "/></g></g></g><g fill="#000000" fill-opacity="1"><g transform="translate(579.733815, 446.034598)"><g><path d="M 10.265625 -10.296875 L 3.640625 -10.296875 L 3.640625 -7.03125 L 9.578125 -7.03125 L 9.578125 -5.1875 L 3.640625 -5.1875 L 3.640625 -1.84375 L 10.46875 -1.84375 L 10.46875 0 L 1.59375 0 L 1.59375 -12.140625 L 10.265625 -12.140625 Z M 10.265625 -10.296875 "/></g></g></g><g fill="#000000" fill-opacity="1"><g transform="translate(591.111278, 446.034598)"><g><path d="M 14.4375 0 L 12.546875 0 L 12.515625 -9.078125 L 8.6875 -1.265625 L 7.359375 -1.265625 L 3.515625 -9.078125 L 3.515625 0 L 1.59375 0 L 1.59375 -12.140625 L 4.03125 -12.140625 L 8.03125 -4.078125 L 12.015625 -12.140625 L 14.4375 -12.140625 Z M 14.4375 0 "/></g></g></g><g fill="#000000" fill-opacity="1"><g transform="translate(607.154201, 446.034598)"><g><path d="M 10.265625 -10.296875 L 3.640625 -10.296875 L 3.640625 -7.03125 L 9.578125 -7.03125 L 9.578125 -5.1875 L 3.640625 -5.1875 L 3.640625 -1.84375 L 10.46875 -1.84375 L 10.46875 0 L 1.59375 0 L 1.59375 -12.140625 L 10.265625 -12.140625 Z M 10.265625 -10.296875 "/></g></g></g><g fill="#000000" fill-opacity="1"><g transform="translate(618.531664, 446.034598)"><g><path d="M 12.125 0 L 10.109375 0 L 3.640625 -8.703125 L 3.640625 0 L 1.59375 0 L 1.59375 -12.140625 L 3.609375 -12.140625 L 10.109375 -3.421875 L 10.109375 -12.140625 L 12.125 -12.140625 Z M 12.125 0 "/></g></g></g><g fill="#000000" fill-opacity="1"><g transform="translate(632.267869, 446.034598)"><g><path d="M 9.890625 -10.296875 L 6.03125 -10.296875 L 6.03125 0 L 3.984375 0 L 3.984375 -10.296875 L 0.15625 -10.296875 L 0.15625 -12.140625 L 9.890625 -12.140625 Z M 9.890625 -10.296875 "/></g></g></g></svg>